G04 #@! TF.FileFunction,Copper,L2,Bot,Signal*
%FSLAX46Y46*%
G04 Gerber Fmt 4.6, Leading zero omitted, Abs format (unit mm)*
G04 Created by KiCad (PCBNEW 4.0.7-e2-6376~58~ubuntu14.04.1) date Sat Apr  7 11:11:52 2018*
%MOMM*%
%LPD*%
G01*
G04 APERTURE LIST*
%ADD10C,0.150000*%
%ADD11R,1.397000X1.397000*%
%ADD12C,1.397000*%
%ADD13R,1.524000X1.524000*%
%ADD14C,1.524000*%
%ADD15C,1.676400*%
%ADD16R,2.540000X2.540000*%
%ADD17C,2.540000*%
%ADD18R,1.700000X1.700000*%
%ADD19O,1.700000X1.700000*%
%ADD20R,1.600000X1.600000*%
%ADD21O,1.600000X1.600000*%
%ADD22C,0.889000*%
%ADD23C,1.000000*%
G04 APERTURE END LIST*
D10*
D11*
X106680000Y-73660000D03*
D12*
X106680000Y-76200000D03*
X106680000Y-78740000D03*
X114300000Y-78740000D03*
X114300000Y-76200000D03*
X114300000Y-73660000D03*
X116586000Y-70104000D03*
X108966000Y-70104000D03*
X101600000Y-68580000D03*
X101600000Y-76200000D03*
X116586000Y-138938000D03*
X108966000Y-138938000D03*
X101346000Y-137160000D03*
X101346000Y-144780000D03*
X116586000Y-150622000D03*
X108966000Y-150622000D03*
X101346000Y-148590000D03*
X101346000Y-156210000D03*
X116586000Y-127762000D03*
X108966000Y-127762000D03*
X101346000Y-125730000D03*
X101346000Y-133350000D03*
X116586000Y-116078000D03*
X108966000Y-116078000D03*
X101346000Y-114300000D03*
X101346000Y-121920000D03*
X116586000Y-104902000D03*
X108966000Y-104902000D03*
X101346000Y-102870000D03*
X101346000Y-110490000D03*
X116586000Y-93218000D03*
X108966000Y-93218000D03*
X101346000Y-91440000D03*
X101346000Y-99060000D03*
X116586000Y-82042000D03*
X108966000Y-82042000D03*
X101346000Y-80010000D03*
X101346000Y-87630000D03*
D13*
X83820000Y-72390000D03*
D14*
X83820000Y-74930000D03*
X83820000Y-77470000D03*
D15*
X95250000Y-129540000D03*
X97790000Y-129540000D03*
X95250000Y-95250000D03*
X97790000Y-95250000D03*
X95250000Y-140970000D03*
X97790000Y-140970000D03*
X95250000Y-83820000D03*
X97790000Y-83820000D03*
X95250000Y-106680000D03*
X97790000Y-106680000D03*
X95250000Y-72390000D03*
X97790000Y-72390000D03*
X95250000Y-152400000D03*
X97790000Y-152400000D03*
X95250000Y-118110000D03*
X97790000Y-118110000D03*
D11*
X106680000Y-153670000D03*
D12*
X106680000Y-156210000D03*
X106680000Y-158750000D03*
X114300000Y-158750000D03*
X114300000Y-156210000D03*
X114300000Y-153670000D03*
D11*
X106680000Y-142240000D03*
D12*
X106680000Y-144780000D03*
X106680000Y-147320000D03*
X114300000Y-147320000D03*
X114300000Y-144780000D03*
X114300000Y-142240000D03*
D11*
X106680000Y-96520000D03*
D12*
X106680000Y-99060000D03*
X106680000Y-101600000D03*
X114300000Y-101600000D03*
X114300000Y-99060000D03*
X114300000Y-96520000D03*
D11*
X106680000Y-130810000D03*
D12*
X106680000Y-133350000D03*
X106680000Y-135890000D03*
X114300000Y-135890000D03*
X114300000Y-133350000D03*
X114300000Y-130810000D03*
D11*
X106680000Y-85090000D03*
D12*
X106680000Y-87630000D03*
X106680000Y-90170000D03*
X114300000Y-90170000D03*
X114300000Y-87630000D03*
X114300000Y-85090000D03*
D11*
X106680000Y-119380000D03*
D12*
X106680000Y-121920000D03*
X106680000Y-124460000D03*
X114300000Y-124460000D03*
X114300000Y-121920000D03*
X114300000Y-119380000D03*
D11*
X106680000Y-107950000D03*
D12*
X106680000Y-110490000D03*
X106680000Y-113030000D03*
X114300000Y-113030000D03*
X114300000Y-110490000D03*
X114300000Y-107950000D03*
D11*
X80010000Y-129540000D03*
D12*
X80010000Y-137160000D03*
D11*
X80010000Y-118110000D03*
D12*
X80010000Y-125730000D03*
D11*
X80010000Y-72390000D03*
D12*
X80010000Y-80010000D03*
D11*
X80010000Y-152400000D03*
D12*
X80010000Y-160020000D03*
D11*
X80010000Y-106680000D03*
D12*
X80010000Y-114300000D03*
D11*
X80010000Y-95250000D03*
D12*
X80010000Y-102870000D03*
D11*
X80010000Y-140970000D03*
D12*
X80010000Y-148590000D03*
D11*
X80010000Y-83820000D03*
D12*
X80010000Y-91440000D03*
D13*
X83820000Y-118110000D03*
D14*
X83820000Y-120650000D03*
X83820000Y-123190000D03*
D13*
X83820000Y-129540000D03*
D14*
X83820000Y-132080000D03*
X83820000Y-134620000D03*
D13*
X83820000Y-140970000D03*
D14*
X83820000Y-143510000D03*
X83820000Y-146050000D03*
D13*
X83820000Y-152400000D03*
D14*
X83820000Y-154940000D03*
X83820000Y-157480000D03*
D11*
X80010000Y-164846000D03*
D12*
X87630000Y-164846000D03*
D16*
X68580000Y-151130000D03*
D17*
X68580000Y-146050000D03*
X68580000Y-140970000D03*
D16*
X68580000Y-116840000D03*
D17*
X68580000Y-111760000D03*
X68580000Y-106680000D03*
D16*
X68580000Y-82550000D03*
D17*
X68580000Y-77470000D03*
X68580000Y-72390000D03*
D16*
X68580000Y-162560000D03*
D17*
X68580000Y-157480000D03*
D13*
X83820000Y-83820000D03*
D14*
X83820000Y-86360000D03*
X83820000Y-88900000D03*
D13*
X83820000Y-95250000D03*
D14*
X83820000Y-97790000D03*
X83820000Y-100330000D03*
D13*
X83820000Y-106680000D03*
D14*
X83820000Y-109220000D03*
X83820000Y-111760000D03*
D12*
X87630000Y-72390000D03*
X87630000Y-80010000D03*
X91440000Y-72390000D03*
X91440000Y-80010000D03*
X87630000Y-83820000D03*
X87630000Y-91440000D03*
X91440000Y-83820000D03*
X91440000Y-91440000D03*
X87630000Y-95250000D03*
X87630000Y-102870000D03*
X91440000Y-95250000D03*
X91440000Y-102870000D03*
X87630000Y-106680000D03*
X87630000Y-114300000D03*
X91440000Y-106680000D03*
X91440000Y-114300000D03*
X87630000Y-118110000D03*
X87630000Y-125730000D03*
X91440000Y-118110000D03*
X91440000Y-125730000D03*
X87630000Y-129540000D03*
X87630000Y-137160000D03*
X91440000Y-129540000D03*
X91440000Y-137160000D03*
X87630000Y-152400000D03*
X87630000Y-160020000D03*
X91440000Y-152400000D03*
X91440000Y-160020000D03*
X87630000Y-140970000D03*
X87630000Y-148590000D03*
X91440000Y-140970000D03*
X91440000Y-148590000D03*
D13*
X101346000Y-160274000D03*
D14*
X101346000Y-162814000D03*
D18*
X153162000Y-72390000D03*
D19*
X153162000Y-74930000D03*
X153162000Y-77470000D03*
X153162000Y-80010000D03*
X153162000Y-82550000D03*
X153162000Y-85090000D03*
X153162000Y-87630000D03*
X153162000Y-90170000D03*
X153162000Y-92710000D03*
X153162000Y-95250000D03*
D20*
X131826000Y-85598000D03*
D21*
X139446000Y-103378000D03*
X131826000Y-88138000D03*
X139446000Y-100838000D03*
X131826000Y-90678000D03*
X139446000Y-98298000D03*
X131826000Y-93218000D03*
X139446000Y-95758000D03*
X131826000Y-95758000D03*
X139446000Y-93218000D03*
X131826000Y-98298000D03*
X139446000Y-90678000D03*
X131826000Y-100838000D03*
X139446000Y-88138000D03*
X131826000Y-103378000D03*
X139446000Y-85598000D03*
D20*
X132080000Y-137922000D03*
D21*
X139700000Y-155702000D03*
X132080000Y-140462000D03*
X139700000Y-153162000D03*
X132080000Y-143002000D03*
X139700000Y-150622000D03*
X132080000Y-145542000D03*
X139700000Y-148082000D03*
X132080000Y-148082000D03*
X139700000Y-145542000D03*
X132080000Y-150622000D03*
X139700000Y-143002000D03*
X132080000Y-153162000D03*
X139700000Y-140462000D03*
X132080000Y-155702000D03*
X139700000Y-137922000D03*
D22*
X159004000Y-97790000D03*
X155448000Y-97790000D03*
X153162000Y-97790000D03*
X146796002Y-97790000D03*
D23*
X101346000Y-160274000D02*
X102362000Y-159258000D01*
X102362000Y-159258000D02*
X102362000Y-158496000D01*
X102362000Y-158496000D02*
X102362000Y-158750000D01*
X102362000Y-158750000D02*
X102362000Y-158496000D01*
X101346000Y-158496000D02*
X101346000Y-160274000D01*
X101346000Y-160274000D02*
X100584000Y-159512000D01*
X100584000Y-159512000D02*
X100584000Y-158496000D01*
X80010000Y-160020000D02*
X85090000Y-160020000D01*
X104394000Y-158496000D02*
X106680000Y-156210000D01*
X102362000Y-158496000D02*
X104394000Y-158496000D01*
X86614000Y-158496000D02*
X100584000Y-158496000D01*
X100584000Y-158496000D02*
X101346000Y-158496000D01*
X101346000Y-158496000D02*
X102362000Y-158496000D01*
X85090000Y-160020000D02*
X86614000Y-158496000D01*
X80010000Y-148590000D02*
X84582000Y-148590000D01*
X104902000Y-146558000D02*
X106680000Y-144780000D01*
X86614000Y-146558000D02*
X104902000Y-146558000D01*
X84582000Y-148590000D02*
X86614000Y-146558000D01*
X80010000Y-137160000D02*
X84328000Y-137160000D01*
X104902000Y-135128000D02*
X106680000Y-133350000D01*
X86360000Y-135128000D02*
X104902000Y-135128000D01*
X84328000Y-137160000D02*
X86360000Y-135128000D01*
X80010000Y-125730000D02*
X84836000Y-125730000D01*
X105156000Y-123444000D02*
X106680000Y-121920000D01*
X87122000Y-123444000D02*
X105156000Y-123444000D01*
X84836000Y-125730000D02*
X87122000Y-123444000D01*
X80010000Y-114300000D02*
X84582000Y-114300000D01*
X105156000Y-112014000D02*
X106680000Y-110490000D01*
X86868000Y-112014000D02*
X105156000Y-112014000D01*
X84582000Y-114300000D02*
X86868000Y-112014000D01*
X80010000Y-102870000D02*
X84074000Y-102870000D01*
X105156000Y-100838000D02*
X106680000Y-99314000D01*
X104394000Y-100838000D02*
X105156000Y-100838000D01*
X86106000Y-100838000D02*
X104394000Y-100838000D01*
X84074000Y-102870000D02*
X86106000Y-100838000D01*
X106680000Y-99314000D02*
X106680000Y-99060000D01*
X80010000Y-91440000D02*
X84582000Y-91440000D01*
X104902000Y-89154000D02*
X106426000Y-87630000D01*
X86868000Y-89154000D02*
X104902000Y-89154000D01*
X84582000Y-91440000D02*
X86868000Y-89154000D01*
X106426000Y-87630000D02*
X106680000Y-87630000D01*
X80010000Y-80010000D02*
X84328000Y-80010000D01*
X84328000Y-80010000D02*
X86360000Y-77978000D01*
X86360000Y-77978000D02*
X103124000Y-77978000D01*
X103124000Y-77978000D02*
X104902000Y-77978000D01*
X104902000Y-77978000D02*
X106680000Y-76200000D01*
X77470000Y-160020000D02*
X80010000Y-160020000D01*
X65405000Y-145415000D02*
X65405000Y-144780000D01*
X74930000Y-143510000D02*
X80010000Y-148590000D01*
X66675000Y-143510000D02*
X74930000Y-143510000D01*
X65405000Y-144780000D02*
X66675000Y-143510000D01*
X65405000Y-140335000D02*
X65405000Y-139065000D01*
X67310000Y-137160000D02*
X80010000Y-137160000D01*
X65405000Y-139065000D02*
X67310000Y-137160000D01*
X65405000Y-115570000D02*
X66675000Y-114300000D01*
X79375000Y-125095000D02*
X80010000Y-125730000D01*
X79375000Y-122555000D02*
X79375000Y-125095000D01*
X74930000Y-118110000D02*
X79375000Y-122555000D01*
X74930000Y-116205000D02*
X74930000Y-118110000D01*
X73025000Y-114300000D02*
X74930000Y-116205000D01*
X66675000Y-114300000D02*
X73025000Y-114300000D01*
X65405000Y-111125000D02*
X67310000Y-109220000D01*
X74930000Y-109220000D02*
X80010000Y-114300000D01*
X67310000Y-109220000D02*
X74930000Y-109220000D01*
X65405000Y-104140000D02*
X66675000Y-102870000D01*
X66675000Y-102870000D02*
X80010000Y-102870000D01*
X65405000Y-81915000D02*
X67310000Y-80010000D01*
X80010000Y-88265000D02*
X80010000Y-91440000D01*
X74930000Y-83185000D02*
X80010000Y-88265000D01*
X74930000Y-81280000D02*
X74930000Y-83185000D01*
X73660000Y-80010000D02*
X74930000Y-81280000D01*
X67310000Y-80010000D02*
X73660000Y-80010000D01*
X74930000Y-74930000D02*
X80010000Y-80010000D01*
X67310000Y-74930000D02*
X74930000Y-74930000D01*
X65405000Y-76835000D02*
X67310000Y-74930000D01*
X65405000Y-111125000D02*
X65405000Y-104140000D01*
X65405000Y-104140000D02*
X65405000Y-81915000D01*
X65405000Y-81915000D02*
X65405000Y-76835000D01*
X76835000Y-159385000D02*
X77470000Y-160020000D01*
X65405000Y-115570000D02*
X65405000Y-111125000D01*
X76835000Y-154305000D02*
X76835000Y-159385000D01*
X65405000Y-140335000D02*
X65405000Y-115570000D01*
X73660000Y-151130000D02*
X76835000Y-154305000D01*
X65405000Y-145415000D02*
X65405000Y-140335000D01*
X65405000Y-150495000D02*
X65405000Y-145415000D01*
X68580000Y-151130000D02*
X73660000Y-151130000D01*
X68580000Y-151130000D02*
X66040000Y-151130000D01*
X66040000Y-151130000D02*
X65405000Y-150495000D01*
X68580000Y-72390000D02*
X80010000Y-72390000D01*
X80010000Y-72390000D02*
X83820000Y-72390000D01*
X83820000Y-72390000D02*
X87630000Y-72390000D01*
X91440000Y-72390000D02*
X95250000Y-72390000D01*
X83820000Y-77470000D02*
X83820000Y-74930000D01*
X83820000Y-74930000D02*
X90170000Y-74930000D01*
X90170000Y-74930000D02*
X91440000Y-73660000D01*
X91440000Y-73660000D02*
X91440000Y-72390000D01*
X97790000Y-72390000D02*
X99568000Y-72390000D01*
X101600000Y-70358000D02*
X101600000Y-68580000D01*
X99568000Y-72390000D02*
X101600000Y-70358000D01*
X68580000Y-77470000D02*
X74930000Y-77470000D01*
X78740000Y-83820000D02*
X87630000Y-83820000D01*
X76835000Y-81915000D02*
X78740000Y-83820000D01*
X76835000Y-79375000D02*
X76835000Y-81915000D01*
X74930000Y-77470000D02*
X76835000Y-79375000D01*
X68580000Y-82550000D02*
X71755000Y-82550000D01*
X71755000Y-82550000D02*
X73025000Y-83820000D01*
X80010000Y-95250000D02*
X87630000Y-95250000D01*
X73025000Y-88265000D02*
X80010000Y-95250000D01*
X73025000Y-83820000D02*
X73025000Y-88265000D01*
X68580000Y-106680000D02*
X87630000Y-106680000D01*
X68580000Y-111760000D02*
X74295000Y-111760000D01*
X78740000Y-118110000D02*
X87630000Y-118110000D01*
X76835000Y-116205000D02*
X78740000Y-118110000D01*
X76835000Y-114300000D02*
X76835000Y-116205000D01*
X74295000Y-111760000D02*
X76835000Y-114300000D01*
X68580000Y-116840000D02*
X71755000Y-116840000D01*
X71755000Y-116840000D02*
X73025000Y-118110000D01*
X73025000Y-118110000D02*
X73025000Y-122555000D01*
X73025000Y-122555000D02*
X80010000Y-129540000D01*
X80010000Y-129540000D02*
X87630000Y-129540000D01*
X73660000Y-146050000D02*
X76835000Y-149225000D01*
X68580000Y-146050000D02*
X73660000Y-146050000D01*
X78105000Y-152400000D02*
X87630000Y-152400000D01*
X76835000Y-151130000D02*
X78105000Y-152400000D01*
X76835000Y-149225000D02*
X76835000Y-151130000D01*
X68580000Y-140970000D02*
X87630000Y-140970000D01*
X91440000Y-83820000D02*
X95250000Y-83820000D01*
X83820000Y-88900000D02*
X83820000Y-86360000D01*
X83820000Y-86360000D02*
X89535000Y-86360000D01*
X89535000Y-86360000D02*
X91440000Y-84455000D01*
X91440000Y-84455000D02*
X91440000Y-83820000D01*
X97790000Y-83820000D02*
X99060000Y-83820000D01*
X101346000Y-81534000D02*
X101346000Y-80010000D01*
X99060000Y-83820000D02*
X101346000Y-81534000D01*
X91440000Y-95250000D02*
X95250000Y-95250000D01*
X83820000Y-100330000D02*
X83820000Y-97790000D01*
X83820000Y-97790000D02*
X89535000Y-97790000D01*
X89535000Y-97790000D02*
X91440000Y-95885000D01*
X91440000Y-95885000D02*
X91440000Y-95250000D01*
X97790000Y-95250000D02*
X100076000Y-95250000D01*
X101346000Y-93980000D02*
X101346000Y-91440000D01*
X100076000Y-95250000D02*
X101346000Y-93980000D01*
X91440000Y-106680000D02*
X95250000Y-106680000D01*
X83820000Y-111760000D02*
X83820000Y-109220000D01*
X83820000Y-109220000D02*
X89535000Y-109220000D01*
X89535000Y-109220000D02*
X91440000Y-107315000D01*
X91440000Y-107315000D02*
X91440000Y-106680000D01*
X97790000Y-106680000D02*
X100076000Y-106680000D01*
X101346000Y-105410000D02*
X101346000Y-102870000D01*
X100076000Y-106680000D02*
X101346000Y-105410000D01*
X91440000Y-118110000D02*
X95250000Y-118110000D01*
X83820000Y-120650000D02*
X90170000Y-120650000D01*
X91440000Y-119380000D02*
X91440000Y-118110000D01*
X90170000Y-120650000D02*
X91440000Y-119380000D01*
X83820000Y-123190000D02*
X83820000Y-120650000D01*
X97790000Y-118110000D02*
X100584000Y-118110000D01*
X101346000Y-117348000D02*
X101346000Y-114300000D01*
X100584000Y-118110000D02*
X101346000Y-117348000D01*
X91440000Y-129540000D02*
X95250000Y-129540000D01*
X83820000Y-134620000D02*
X83820000Y-132080000D01*
X83820000Y-132080000D02*
X89535000Y-132080000D01*
X89535000Y-132080000D02*
X91440000Y-130175000D01*
X91440000Y-130175000D02*
X91440000Y-129540000D01*
X97790000Y-129540000D02*
X100584000Y-129540000D01*
X101346000Y-128778000D02*
X101346000Y-125730000D01*
X100584000Y-129540000D02*
X101346000Y-128778000D01*
X83820000Y-154940000D02*
X90170000Y-154940000D01*
X91440000Y-153670000D02*
X91440000Y-152400000D01*
X90170000Y-154940000D02*
X91440000Y-153670000D01*
X91440000Y-152400000D02*
X95250000Y-152400000D01*
X83820000Y-157480000D02*
X83820000Y-154940000D01*
X97790000Y-152400000D02*
X99822000Y-152400000D01*
X101346000Y-150876000D02*
X101346000Y-148590000D01*
X99822000Y-152400000D02*
X101346000Y-150876000D01*
X91440000Y-140970000D02*
X95250000Y-140970000D01*
X83820000Y-146050000D02*
X83820000Y-143510000D01*
X83820000Y-143510000D02*
X90170000Y-143510000D01*
X90170000Y-143510000D02*
X91440000Y-142240000D01*
X91440000Y-142240000D02*
X91440000Y-140970000D01*
X97790000Y-140970000D02*
X100076000Y-140970000D01*
X101346000Y-139700000D02*
X101346000Y-137160000D01*
X100076000Y-140970000D02*
X101346000Y-139700000D01*
X68580000Y-162560000D02*
X73406000Y-162560000D01*
X75692000Y-164846000D02*
X80010000Y-164846000D01*
X73406000Y-162560000D02*
X75692000Y-164846000D01*
X101600000Y-76200000D02*
X101600000Y-74422000D01*
X102362000Y-73660000D02*
X106680000Y-73660000D01*
X101600000Y-74422000D02*
X102362000Y-73660000D01*
X131826000Y-103378000D02*
X119634000Y-103378000D01*
X117856000Y-101600000D02*
X114300000Y-101600000D01*
X119634000Y-103378000D02*
X117856000Y-101600000D01*
X101346000Y-162814000D02*
X112014000Y-162814000D01*
X114300000Y-160528000D02*
X114300000Y-158750000D01*
X112014000Y-162814000D02*
X114300000Y-160528000D01*
X68580000Y-157480000D02*
X73660000Y-157480000D01*
X77216000Y-162814000D02*
X101346000Y-162814000D01*
X74930000Y-160528000D02*
X77216000Y-162814000D01*
X74930000Y-158750000D02*
X74930000Y-160528000D01*
X73660000Y-157480000D02*
X74930000Y-158750000D01*
X114300000Y-158750000D02*
X131318000Y-158750000D01*
X131318000Y-158750000D02*
X132080000Y-159512000D01*
X114300000Y-101600000D02*
X112776000Y-101600000D01*
X112776000Y-101600000D02*
X112014000Y-100838000D01*
X114300000Y-90170000D02*
X113284000Y-90170000D01*
X113284000Y-90170000D02*
X112014000Y-88900000D01*
X114300000Y-113030000D02*
X113538000Y-113030000D01*
X113538000Y-113030000D02*
X112014000Y-111506000D01*
X114300000Y-124460000D02*
X113030000Y-124460000D01*
X113030000Y-124460000D02*
X112014000Y-123444000D01*
X114300000Y-135890000D02*
X113284000Y-135890000D01*
X113284000Y-135890000D02*
X112014000Y-134620000D01*
X114300000Y-147320000D02*
X113030000Y-147320000D01*
X113030000Y-147320000D02*
X112014000Y-146304000D01*
X114300000Y-78740000D02*
X112522000Y-78740000D01*
X112776000Y-158750000D02*
X114300000Y-158750000D01*
X112014000Y-146304000D02*
X112014000Y-157988000D01*
X112014000Y-157988000D02*
X112776000Y-158750000D01*
X112014000Y-79248000D02*
X112014000Y-88900000D01*
X112014000Y-88900000D02*
X112014000Y-100838000D01*
X112014000Y-100838000D02*
X112014000Y-111506000D01*
X112014000Y-111506000D02*
X112014000Y-123444000D01*
X112014000Y-123444000D02*
X112014000Y-134620000D01*
X112014000Y-134620000D02*
X112014000Y-146304000D01*
X112522000Y-78740000D02*
X112014000Y-79248000D01*
X132080000Y-159512000D02*
X153670000Y-159512000D01*
X153670000Y-159512000D02*
X157734000Y-155448000D01*
X157734000Y-155448000D02*
X157734000Y-97536000D01*
X157734000Y-97536000D02*
X155448000Y-95250000D01*
X155448000Y-95250000D02*
X153162000Y-95250000D01*
X132080000Y-159512000D02*
X132080000Y-155702000D01*
X116586000Y-70104000D02*
X116840000Y-70104000D01*
X116840000Y-70104000D02*
X119126000Y-72390000D01*
X116586000Y-73914000D02*
X118110000Y-72390000D01*
X119380000Y-72390000D02*
X119126000Y-72390000D01*
X119126000Y-72390000D02*
X126238000Y-72390000D01*
X130556000Y-90678000D02*
X131826000Y-90678000D01*
X129032000Y-89154000D02*
X130556000Y-90678000D01*
X129032000Y-75184000D02*
X129032000Y-89154000D01*
X126238000Y-72390000D02*
X129032000Y-75184000D01*
X118110000Y-72390000D02*
X119380000Y-72390000D01*
X116586000Y-73914000D02*
X114300000Y-76200000D01*
X101346000Y-87630000D02*
X101346000Y-86106000D01*
X102362000Y-85090000D02*
X106680000Y-85090000D01*
X101346000Y-86106000D02*
X102362000Y-85090000D01*
X116586000Y-82042000D02*
X116840000Y-82042000D01*
X116840000Y-82042000D02*
X118618000Y-83820000D01*
X119380000Y-83820000D02*
X118618000Y-83820000D01*
X118618000Y-83820000D02*
X118110000Y-83820000D01*
X126492000Y-83820000D02*
X127508000Y-84836000D01*
X127508000Y-84836000D02*
X127508000Y-92964000D01*
X127508000Y-92964000D02*
X130302000Y-95758000D01*
X131826000Y-95758000D02*
X130302000Y-95758000D01*
X119380000Y-83820000D02*
X126492000Y-83820000D01*
X118110000Y-83820000D02*
X116840000Y-85090000D01*
X116840000Y-85090000D02*
X114300000Y-87630000D01*
X101346000Y-99060000D02*
X101346000Y-97536000D01*
X102362000Y-96520000D02*
X106680000Y-96520000D01*
X101346000Y-97536000D02*
X102362000Y-96520000D01*
X116586000Y-93472000D02*
X118364000Y-95250000D01*
X116586000Y-93218000D02*
X116586000Y-93472000D01*
X119380000Y-95250000D02*
X118364000Y-95250000D01*
X118364000Y-95250000D02*
X118110000Y-95250000D01*
X125984000Y-95250000D02*
X129032000Y-98298000D01*
X129032000Y-98298000D02*
X129032000Y-100330000D01*
X129032000Y-100330000D02*
X129540000Y-100838000D01*
X131826000Y-100838000D02*
X129540000Y-100838000D01*
X119380000Y-95250000D02*
X125984000Y-95250000D01*
X118110000Y-95250000D02*
X114300000Y-99060000D01*
X101346000Y-110490000D02*
X101346000Y-109220000D01*
X102616000Y-107950000D02*
X106680000Y-107950000D01*
X101346000Y-109220000D02*
X102616000Y-107950000D01*
X116586000Y-104902000D02*
X116586000Y-105156000D01*
X116586000Y-105156000D02*
X118110000Y-106680000D01*
X119380000Y-106680000D02*
X118110000Y-106680000D01*
X132588000Y-106680000D02*
X133858000Y-105410000D01*
X133858000Y-105410000D02*
X133858000Y-99568000D01*
X133858000Y-99568000D02*
X135125713Y-98300287D01*
X135125713Y-98300287D02*
X135125713Y-95252287D01*
X135125713Y-95252287D02*
X136398000Y-93980000D01*
X136398000Y-93980000D02*
X136398000Y-91948000D01*
X136398000Y-91948000D02*
X137668000Y-90678000D01*
X139446000Y-90678000D02*
X137668000Y-90678000D01*
X119380000Y-106680000D02*
X132588000Y-106680000D01*
X118110000Y-106680000D02*
X114300000Y-110490000D01*
X101346000Y-121920000D02*
X101346000Y-120396000D01*
X102362000Y-119380000D02*
X106680000Y-119380000D01*
X101346000Y-120396000D02*
X102362000Y-119380000D01*
X116586000Y-116078000D02*
X118618000Y-118110000D01*
X118618000Y-118110000D02*
X118110000Y-118110000D01*
X119380000Y-118110000D02*
X118110000Y-118110000D01*
X131572000Y-118110000D02*
X135112002Y-114569998D01*
X135112002Y-114569998D02*
X135112002Y-100091998D01*
X135112002Y-100091998D02*
X136906000Y-98298000D01*
X139446000Y-98298000D02*
X136906000Y-98298000D01*
X119380000Y-118110000D02*
X131572000Y-118110000D01*
X118110000Y-118110000D02*
X114300000Y-121920000D01*
X101346000Y-133350000D02*
X101346000Y-131826000D01*
X102362000Y-130810000D02*
X106680000Y-130810000D01*
X101346000Y-131826000D02*
X102362000Y-130810000D01*
X116586000Y-127762000D02*
X116840000Y-127762000D01*
X116840000Y-127762000D02*
X118618000Y-129540000D01*
X118618000Y-129540000D02*
X118110000Y-129540000D01*
X119380000Y-129540000D02*
X118110000Y-129540000D01*
X131572000Y-129540000D02*
X136366004Y-124745996D01*
X136366004Y-124745996D02*
X136366004Y-104679996D01*
X136366004Y-104679996D02*
X137668000Y-103378000D01*
X139446000Y-103378000D02*
X137668000Y-103378000D01*
X119380000Y-129540000D02*
X131572000Y-129540000D01*
X118110000Y-129540000D02*
X114300000Y-133350000D01*
X101346000Y-144780000D02*
X101346000Y-143510000D01*
X102616000Y-142240000D02*
X106680000Y-142240000D01*
X101346000Y-143510000D02*
X102616000Y-142240000D01*
X116586000Y-138938000D02*
X118618000Y-140970000D01*
X118618000Y-140970000D02*
X118110000Y-140970000D01*
X119380000Y-140970000D02*
X118110000Y-140970000D01*
X128270000Y-140970000D02*
X130302000Y-143002000D01*
X132080000Y-143002000D02*
X130302000Y-143002000D01*
X119380000Y-140970000D02*
X128270000Y-140970000D01*
X118110000Y-140970000D02*
X114300000Y-144780000D01*
X101346000Y-156210000D02*
X101346000Y-154940000D01*
X102616000Y-153670000D02*
X106680000Y-153670000D01*
X101346000Y-154940000D02*
X102616000Y-153670000D01*
X116586000Y-150622000D02*
X116586000Y-150876000D01*
X116586000Y-150876000D02*
X118110000Y-152400000D01*
X119380000Y-152400000D02*
X118110000Y-152400000D01*
X125984000Y-152400000D02*
X130302000Y-148082000D01*
X132080000Y-148082000D02*
X130302000Y-148082000D01*
X119380000Y-152400000D02*
X125984000Y-152400000D01*
X118110000Y-152400000D02*
X114300000Y-156210000D01*
X131826000Y-88138000D02*
X133096000Y-88138000D01*
X134874000Y-74930000D02*
X153162000Y-74930000D01*
X133604000Y-76200000D02*
X134874000Y-74930000D01*
X133604000Y-87630000D02*
X133604000Y-76200000D01*
X133096000Y-88138000D02*
X133604000Y-87630000D01*
X131826000Y-93218000D02*
X133350000Y-93218000D01*
X135890000Y-77470000D02*
X153162000Y-77470000D01*
X134874000Y-78486000D02*
X135890000Y-77470000D01*
X134874000Y-88392000D02*
X134874000Y-78486000D01*
X133858000Y-89408000D02*
X134874000Y-88392000D01*
X133858000Y-92710000D02*
X133858000Y-89408000D01*
X133350000Y-93218000D02*
X133858000Y-92710000D01*
X131826000Y-98298000D02*
X133096000Y-98298000D01*
X136906000Y-80010000D02*
X153162000Y-80010000D01*
X136128002Y-80787998D02*
X136906000Y-80010000D01*
X136128002Y-88915998D02*
X136128002Y-80787998D01*
X135112002Y-89931998D02*
X136128002Y-88915998D01*
X135112002Y-93233998D02*
X135112002Y-89931998D01*
X133858000Y-94488000D02*
X135112002Y-93233998D01*
X133858000Y-97536000D02*
X133858000Y-94488000D01*
X133096000Y-98298000D02*
X133858000Y-97536000D01*
X139446000Y-88138000D02*
X141224000Y-88138000D01*
X143764000Y-82550000D02*
X153162000Y-82550000D01*
X142240000Y-84074000D02*
X143764000Y-82550000D01*
X142240000Y-87122000D02*
X142240000Y-84074000D01*
X141224000Y-88138000D02*
X142240000Y-87122000D01*
X139446000Y-95758000D02*
X141478000Y-95758000D01*
X144780000Y-85090000D02*
X153162000Y-85090000D01*
X143764000Y-86106000D02*
X144780000Y-85090000D01*
X143764000Y-93472000D02*
X143764000Y-86106000D01*
X141478000Y-95758000D02*
X143764000Y-93472000D01*
X139446000Y-100838000D02*
X142748000Y-100838000D01*
X147066000Y-87630000D02*
X153162000Y-87630000D01*
X145542000Y-89154000D02*
X147066000Y-87630000D01*
X145542000Y-98044000D02*
X145542000Y-89154000D01*
X142748000Y-100838000D02*
X145542000Y-98044000D01*
X132080000Y-140462000D02*
X134112000Y-140462000D01*
X149098000Y-90170000D02*
X153162000Y-90170000D01*
X148082000Y-91186000D02*
X149098000Y-90170000D01*
X148082000Y-100330000D02*
X148082000Y-91186000D01*
X140208000Y-108204000D02*
X148082000Y-100330000D01*
X140208000Y-125222000D02*
X140208000Y-108204000D01*
X134874000Y-130556000D02*
X140208000Y-125222000D01*
X134874000Y-139700000D02*
X134874000Y-130556000D01*
X134112000Y-140462000D02*
X134874000Y-139700000D01*
X132080000Y-145542000D02*
X133350000Y-145542000D01*
X150622000Y-92710000D02*
X153162000Y-92710000D01*
X149336002Y-93995998D02*
X150622000Y-92710000D01*
X149336002Y-100849424D02*
X149336002Y-93995998D01*
X141462002Y-108723424D02*
X149336002Y-100849424D01*
X141462002Y-125745998D02*
X141462002Y-108723424D01*
X136398000Y-130810000D02*
X141462002Y-125745998D01*
X136398000Y-140462000D02*
X136398000Y-130810000D01*
X134366000Y-142494000D02*
X136398000Y-140462000D01*
X134366000Y-144526000D02*
X134366000Y-142494000D01*
X133350000Y-145542000D02*
X134366000Y-144526000D01*
X87630000Y-80010000D02*
X91440000Y-80010000D01*
X87630000Y-91440000D02*
X91440000Y-91440000D01*
X87630000Y-102870000D02*
X91440000Y-102870000D01*
X87630000Y-114300000D02*
X91440000Y-114300000D01*
X87630000Y-125730000D02*
X91440000Y-125730000D01*
X87630000Y-137160000D02*
X91440000Y-137160000D01*
X87630000Y-160020000D02*
X91440000Y-160020000D01*
X87630000Y-148590000D02*
X91440000Y-148590000D01*
X132080000Y-137922000D02*
X132080000Y-136398000D01*
X160274000Y-97790000D02*
X159766000Y-97790000D01*
X159004000Y-97790000D02*
X160274000Y-97790000D01*
X153162000Y-97790000D02*
X155448000Y-97790000D01*
X146796002Y-99583998D02*
X146796002Y-97790000D01*
X138938000Y-107442000D02*
X146796002Y-99583998D01*
X138938000Y-124206000D02*
X138938000Y-107442000D01*
X133350000Y-129794000D02*
X138938000Y-124206000D01*
X133350000Y-135128000D02*
X133350000Y-129794000D01*
X132080000Y-136398000D02*
X133350000Y-135128000D01*
X87630000Y-164846000D02*
X151892000Y-164846000D01*
X155702000Y-72390000D02*
X153162000Y-72390000D01*
X160274000Y-76962000D02*
X155702000Y-72390000D01*
X160274000Y-156464000D02*
X160274000Y-76962000D01*
X151892000Y-164846000D02*
X160274000Y-156464000D01*
X108966000Y-70104000D02*
X108966000Y-82042000D01*
X108966000Y-82042000D02*
X108966000Y-93218000D01*
X108966000Y-93218000D02*
X108966000Y-104902000D01*
X108966000Y-104902000D02*
X108966000Y-116078000D01*
X108966000Y-116078000D02*
X108966000Y-127762000D01*
X108966000Y-127762000D02*
X108966000Y-138938000D01*
X108966000Y-138938000D02*
X108966000Y-150622000D01*
X133604000Y-72390000D02*
X133604000Y-69850000D01*
X108966000Y-66548000D02*
X108966000Y-70104000D01*
X110490000Y-65024000D02*
X108966000Y-66548000D01*
X128778000Y-65024000D02*
X110490000Y-65024000D01*
X133604000Y-69850000D02*
X128778000Y-65024000D01*
X131826000Y-85598000D02*
X131826000Y-74168000D01*
X133604000Y-72390000D02*
X153162000Y-72390000D01*
X131826000Y-74168000D02*
X133604000Y-72390000D01*
M02*
