G04 #@! TF.FileFunction,Copper,L1,Top,Signal*
%FSLAX46Y46*%
G04 Gerber Fmt 4.6, Leading zero omitted, Abs format (unit mm)*
G04 Created by KiCad (PCBNEW 4.0.7-e2-6376~58~ubuntu14.04.1) date Sat Apr  7 11:11:52 2018*
%MOMM*%
%LPD*%
G01*
G04 APERTURE LIST*
%ADD10C,0.150000*%
%ADD11R,1.397000X1.397000*%
%ADD12C,1.397000*%
%ADD13R,1.524000X1.524000*%
%ADD14C,1.524000*%
%ADD15C,1.676400*%
%ADD16R,2.540000X2.540000*%
%ADD17C,2.540000*%
%ADD18R,1.700000X1.700000*%
%ADD19O,1.700000X1.700000*%
%ADD20R,1.600000X1.600000*%
%ADD21O,1.600000X1.600000*%
%ADD22C,0.889000*%
%ADD23C,1.000000*%
G04 APERTURE END LIST*
D10*
D11*
X106680000Y-73660000D03*
D12*
X106680000Y-76200000D03*
X106680000Y-78740000D03*
X114300000Y-78740000D03*
X114300000Y-76200000D03*
X114300000Y-73660000D03*
X116586000Y-70104000D03*
X108966000Y-70104000D03*
X101600000Y-68580000D03*
X101600000Y-76200000D03*
X116586000Y-138938000D03*
X108966000Y-138938000D03*
X101346000Y-137160000D03*
X101346000Y-144780000D03*
X116586000Y-150622000D03*
X108966000Y-150622000D03*
X101346000Y-148590000D03*
X101346000Y-156210000D03*
X116586000Y-127762000D03*
X108966000Y-127762000D03*
X101346000Y-125730000D03*
X101346000Y-133350000D03*
X116586000Y-116078000D03*
X108966000Y-116078000D03*
X101346000Y-114300000D03*
X101346000Y-121920000D03*
X116586000Y-104902000D03*
X108966000Y-104902000D03*
X101346000Y-102870000D03*
X101346000Y-110490000D03*
X116586000Y-93218000D03*
X108966000Y-93218000D03*
X101346000Y-91440000D03*
X101346000Y-99060000D03*
X116586000Y-82042000D03*
X108966000Y-82042000D03*
X101346000Y-80010000D03*
X101346000Y-87630000D03*
D13*
X83820000Y-72390000D03*
D14*
X83820000Y-74930000D03*
X83820000Y-77470000D03*
D15*
X95250000Y-129540000D03*
X97790000Y-129540000D03*
X95250000Y-95250000D03*
X97790000Y-95250000D03*
X95250000Y-140970000D03*
X97790000Y-140970000D03*
X95250000Y-83820000D03*
X97790000Y-83820000D03*
X95250000Y-106680000D03*
X97790000Y-106680000D03*
X95250000Y-72390000D03*
X97790000Y-72390000D03*
X95250000Y-152400000D03*
X97790000Y-152400000D03*
X95250000Y-118110000D03*
X97790000Y-118110000D03*
D11*
X106680000Y-153670000D03*
D12*
X106680000Y-156210000D03*
X106680000Y-158750000D03*
X114300000Y-158750000D03*
X114300000Y-156210000D03*
X114300000Y-153670000D03*
D11*
X106680000Y-142240000D03*
D12*
X106680000Y-144780000D03*
X106680000Y-147320000D03*
X114300000Y-147320000D03*
X114300000Y-144780000D03*
X114300000Y-142240000D03*
D11*
X106680000Y-96520000D03*
D12*
X106680000Y-99060000D03*
X106680000Y-101600000D03*
X114300000Y-101600000D03*
X114300000Y-99060000D03*
X114300000Y-96520000D03*
D11*
X106680000Y-130810000D03*
D12*
X106680000Y-133350000D03*
X106680000Y-135890000D03*
X114300000Y-135890000D03*
X114300000Y-133350000D03*
X114300000Y-130810000D03*
D11*
X106680000Y-85090000D03*
D12*
X106680000Y-87630000D03*
X106680000Y-90170000D03*
X114300000Y-90170000D03*
X114300000Y-87630000D03*
X114300000Y-85090000D03*
D11*
X106680000Y-119380000D03*
D12*
X106680000Y-121920000D03*
X106680000Y-124460000D03*
X114300000Y-124460000D03*
X114300000Y-121920000D03*
X114300000Y-119380000D03*
D11*
X106680000Y-107950000D03*
D12*
X106680000Y-110490000D03*
X106680000Y-113030000D03*
X114300000Y-113030000D03*
X114300000Y-110490000D03*
X114300000Y-107950000D03*
D11*
X80010000Y-129540000D03*
D12*
X80010000Y-137160000D03*
D11*
X80010000Y-118110000D03*
D12*
X80010000Y-125730000D03*
D11*
X80010000Y-72390000D03*
D12*
X80010000Y-80010000D03*
D11*
X80010000Y-152400000D03*
D12*
X80010000Y-160020000D03*
D11*
X80010000Y-106680000D03*
D12*
X80010000Y-114300000D03*
D11*
X80010000Y-95250000D03*
D12*
X80010000Y-102870000D03*
D11*
X80010000Y-140970000D03*
D12*
X80010000Y-148590000D03*
D11*
X80010000Y-83820000D03*
D12*
X80010000Y-91440000D03*
D13*
X83820000Y-118110000D03*
D14*
X83820000Y-120650000D03*
X83820000Y-123190000D03*
D13*
X83820000Y-129540000D03*
D14*
X83820000Y-132080000D03*
X83820000Y-134620000D03*
D13*
X83820000Y-140970000D03*
D14*
X83820000Y-143510000D03*
X83820000Y-146050000D03*
D13*
X83820000Y-152400000D03*
D14*
X83820000Y-154940000D03*
X83820000Y-157480000D03*
D11*
X80010000Y-164846000D03*
D12*
X87630000Y-164846000D03*
D16*
X68580000Y-151130000D03*
D17*
X68580000Y-146050000D03*
X68580000Y-140970000D03*
D16*
X68580000Y-116840000D03*
D17*
X68580000Y-111760000D03*
X68580000Y-106680000D03*
D16*
X68580000Y-82550000D03*
D17*
X68580000Y-77470000D03*
X68580000Y-72390000D03*
D16*
X68580000Y-162560000D03*
D17*
X68580000Y-157480000D03*
D13*
X83820000Y-83820000D03*
D14*
X83820000Y-86360000D03*
X83820000Y-88900000D03*
D13*
X83820000Y-95250000D03*
D14*
X83820000Y-97790000D03*
X83820000Y-100330000D03*
D13*
X83820000Y-106680000D03*
D14*
X83820000Y-109220000D03*
X83820000Y-111760000D03*
D12*
X87630000Y-72390000D03*
X87630000Y-80010000D03*
X91440000Y-72390000D03*
X91440000Y-80010000D03*
X87630000Y-83820000D03*
X87630000Y-91440000D03*
X91440000Y-83820000D03*
X91440000Y-91440000D03*
X87630000Y-95250000D03*
X87630000Y-102870000D03*
X91440000Y-95250000D03*
X91440000Y-102870000D03*
X87630000Y-106680000D03*
X87630000Y-114300000D03*
X91440000Y-106680000D03*
X91440000Y-114300000D03*
X87630000Y-118110000D03*
X87630000Y-125730000D03*
X91440000Y-118110000D03*
X91440000Y-125730000D03*
X87630000Y-129540000D03*
X87630000Y-137160000D03*
X91440000Y-129540000D03*
X91440000Y-137160000D03*
X87630000Y-152400000D03*
X87630000Y-160020000D03*
X91440000Y-152400000D03*
X91440000Y-160020000D03*
X87630000Y-140970000D03*
X87630000Y-148590000D03*
X91440000Y-140970000D03*
X91440000Y-148590000D03*
D13*
X101346000Y-160274000D03*
D14*
X101346000Y-162814000D03*
D18*
X153162000Y-72390000D03*
D19*
X153162000Y-74930000D03*
X153162000Y-77470000D03*
X153162000Y-80010000D03*
X153162000Y-82550000D03*
X153162000Y-85090000D03*
X153162000Y-87630000D03*
X153162000Y-90170000D03*
X153162000Y-92710000D03*
X153162000Y-95250000D03*
D20*
X131826000Y-85598000D03*
D21*
X139446000Y-103378000D03*
X131826000Y-88138000D03*
X139446000Y-100838000D03*
X131826000Y-90678000D03*
X139446000Y-98298000D03*
X131826000Y-93218000D03*
X139446000Y-95758000D03*
X131826000Y-95758000D03*
X139446000Y-93218000D03*
X131826000Y-98298000D03*
X139446000Y-90678000D03*
X131826000Y-100838000D03*
X139446000Y-88138000D03*
X131826000Y-103378000D03*
X139446000Y-85598000D03*
D20*
X132080000Y-137922000D03*
D21*
X139700000Y-155702000D03*
X132080000Y-140462000D03*
X139700000Y-153162000D03*
X132080000Y-143002000D03*
X139700000Y-150622000D03*
X132080000Y-145542000D03*
X139700000Y-148082000D03*
X132080000Y-148082000D03*
X139700000Y-145542000D03*
X132080000Y-150622000D03*
X139700000Y-143002000D03*
X132080000Y-153162000D03*
X139700000Y-140462000D03*
X132080000Y-155702000D03*
X139700000Y-137922000D03*
D22*
X159004000Y-97790000D03*
X155448000Y-97790000D03*
X153162000Y-97790000D03*
X146796002Y-97790000D03*
D23*
X155448000Y-97790000D02*
X159004000Y-97790000D01*
X146796002Y-97790000D02*
X153162000Y-97790000D01*
M02*
