<?xml version="1.0" standalone="no"?>
 <!DOCTYPE svg PUBLIC "-//W3C//DTD SVG 1.1//EN" 
 "http://www.w3.org/Graphics/SVG/1.1/DTD/svg11.dtd"> 
<svg xmlns="http://www.w3.org/2000/svg" version="1.1" 
    width="10.0279cm" height="11.1887cm" viewBox="0 0 39480 44050 ">
<title>SVG Picture created as entradas-plc-B_Cu.svg date 2018/03/31 23:12:51 </title>
  <desc>Picture generated by PCBNEW </desc>
<g style="fill:#000000; fill-opacity:1;stroke:#000000; stroke-opacity:1;
stroke-linecap:round; stroke-linejoin:round; "
 transform="translate(0 0) scale(1 1)">
</g>
<g style="fill:#000000; fill-opacity:0.0; 
stroke:#000000; stroke-width:59.0551; stroke-opacity:1; 
stroke-linecap:round; stroke-linejoin:round;">
<path d="M460 44029
L460 29
" />
<path d="M39460 44029
L460 44029
" />
<path d="M39460 29
L39460 44029
" />
<path d="M460 29
L39460 29
" />
</g>
<g style="fill:#000000; fill-opacity:0.0; 
stroke:#000000; stroke-width:39.3701; stroke-opacity:1; 
stroke-linecap:round; stroke-linejoin:round;">
</g>
<g style="fill:#000000; fill-opacity:1.0; 
stroke:#000000; stroke-width:39.3701; stroke-opacity:1; 
stroke-linecap:round; stroke-linejoin:round;">
<circle cx="33460" cy="2029.53" r="255.315" /> 
<circle cx="30460" cy="2029.53" r="255.315" /> 
<polyline style="fill-rule:evenodd;"
points="37204,2274
37715,2274
37715,2784
37204,2784
37204,2274
" /> 
<circle cx="37460" cy="3529.53" r="255.315" /> 
<circle cx="37460" cy="4529.53" r="255.315" /> 
<circle cx="37460" cy="5529.53" r="255.315" /> 
<circle cx="37460" cy="6529.53" r="255.315" /> 
<circle cx="37460" cy="7529.53" r="255.315" /> 
<circle cx="37460" cy="8529.53" r="255.315" /> 
<circle cx="37460" cy="9529.53" r="255.315" /> 
<circle cx="37460" cy="10529.5" r="255.315" /> 
<circle cx="37460" cy="11529.5" r="255.315" /> 
<circle cx="19960" cy="5029.53" r="255.315" /> 
<circle cx="22960" cy="5029.53" r="255.315" /> 
<circle cx="33460" cy="11029.5" r="255.315" /> 
<circle cx="30460" cy="11029.5" r="255.315" /> 
<circle cx="19460" cy="32029.5" r="255.315" /> 
<circle cx="22460" cy="32029.5" r="255.315" /> 
<circle cx="33460" cy="12529.5" r="255.315" /> 
<circle cx="30460" cy="12529.5" r="255.315" /> 
<circle cx="19960" cy="36529.5" r="255.315" /> 
<circle cx="22960" cy="36529.5" r="255.315" /> 
<circle cx="33460" cy="9529.53" r="255.315" /> 
<circle cx="30460" cy="9529.53" r="255.315" /> 
<circle cx="19960" cy="27529.5" r="255.315" /> 
<circle cx="22960" cy="27529.5" r="255.315" /> 
<circle cx="33460" cy="8029.53" r="255.315" /> 
<circle cx="30460" cy="8029.53" r="255.315" /> 
<circle cx="19960" cy="23029.5" r="255.315" /> 
<circle cx="22960" cy="23029.5" r="255.315" /> 
<circle cx="33460" cy="6529.53" r="255.315" /> 
<circle cx="30460" cy="6529.53" r="255.315" /> 
<circle cx="19960" cy="18529.5" r="255.315" /> 
<circle cx="22960" cy="18529.5" r="255.315" /> 
<circle cx="33460" cy="5029.53" r="255.315" /> 
<circle cx="30460" cy="5029.53" r="255.315" /> 
<circle cx="19960" cy="14029.5" r="255.315" /> 
<circle cx="22960" cy="14029.5" r="255.315" /> 
<circle cx="33460" cy="3529.53" r="255.315" /> 
<circle cx="30460" cy="3529.53" r="255.315" /> 
<circle cx="19960" cy="9529.53" r="255.315" /> 
<circle cx="22960" cy="9529.53" r="255.315" /> 
<polyline style="fill-rule:evenodd;"
points="10679,5309
10679,4749
11240,4749
11240,5309
10679,5309
" /> 
<circle cx="11960" cy="5029.53" r="280.315" /> 
<circle cx="12960" cy="5029.53" r="280.315" /> 
<circle cx="16460" cy="27529.5" r="310.315" /> 
<circle cx="17460" cy="27529.5" r="310.315" /> 
<circle cx="16960" cy="14029.5" r="310.315" /> 
<circle cx="17960" cy="14029.5" r="310.315" /> 
<circle cx="16460" cy="32029.5" r="310.315" /> 
<circle cx="17460" cy="32029.5" r="310.315" /> 
<circle cx="16960" cy="9529.53" r="310.315" /> 
<circle cx="17960" cy="9529.53" r="310.315" /> 
<circle cx="16960" cy="18529.5" r="310.315" /> 
<circle cx="17960" cy="18529.5" r="310.315" /> 
<circle cx="16960" cy="5029.53" r="310.315" /> 
<circle cx="17960" cy="5029.53" r="310.315" /> 
<circle cx="16460" cy="36529.5" r="310.315" /> 
<circle cx="17460" cy="36529.5" r="310.315" /> 
<circle cx="16960" cy="23029.5" r="310.315" /> 
<circle cx="17960" cy="23029.5" r="310.315" /> 
<polyline style="fill-rule:evenodd;"
points="24704,36784
24704,36274
25215,36274
25215,36784
24704,36784
" /> 
<circle cx="25960" cy="36529.5" r="255.315" /> 
<circle cx="26960" cy="36529.5" r="255.315" /> 
<circle cx="26960" cy="33529.5" r="255.315" /> 
<circle cx="25960" cy="33529.5" r="255.315" /> 
<circle cx="24960" cy="33529.5" r="255.315" /> 
<polyline style="fill-rule:evenodd;"
points="24704,32284
24704,31774
25215,31774
25215,32284
24704,32284
" /> 
<circle cx="25960" cy="32029.5" r="255.315" /> 
<circle cx="26960" cy="32029.5" r="255.315" /> 
<circle cx="26960" cy="29029.5" r="255.315" /> 
<circle cx="25960" cy="29029.5" r="255.315" /> 
<circle cx="24960" cy="29029.5" r="255.315" /> 
<polyline style="fill-rule:evenodd;"
points="24704,5284
24704,4774
25215,4774
25215,5284
24704,5284
" /> 
<circle cx="25960" cy="5029.53" r="255.315" /> 
<circle cx="26960" cy="5029.53" r="255.315" /> 
<circle cx="26960" cy="2029.53" r="255.315" /> 
<circle cx="25960" cy="2029.53" r="255.315" /> 
<circle cx="24960" cy="2029.53" r="255.315" /> 
<polyline style="fill-rule:evenodd;"
points="24704,14284
24704,13774
25215,13774
25215,14284
24704,14284
" /> 
<circle cx="25960" cy="14029.5" r="255.315" /> 
<circle cx="26960" cy="14029.5" r="255.315" /> 
<circle cx="26960" cy="11029.5" r="255.315" /> 
<circle cx="25960" cy="11029.5" r="255.315" /> 
<circle cx="24960" cy="11029.5" r="255.315" /> 
<polyline style="fill-rule:evenodd;"
points="24704,27784
24704,27274
25215,27274
25215,27784
24704,27784
" /> 
<circle cx="25960" cy="27529.5" r="255.315" /> 
<circle cx="26960" cy="27529.5" r="255.315" /> 
<circle cx="26960" cy="24529.5" r="255.315" /> 
<circle cx="25960" cy="24529.5" r="255.315" /> 
<circle cx="24960" cy="24529.5" r="255.315" /> 
<polyline style="fill-rule:evenodd;"
points="24704,9784
24704,9274
25215,9274
25215,9784
24704,9784
" /> 
<circle cx="25960" cy="9529.53" r="255.315" /> 
<circle cx="26960" cy="9529.53" r="255.315" /> 
<circle cx="26960" cy="6529.53" r="255.315" /> 
<circle cx="25960" cy="6529.53" r="255.315" /> 
<circle cx="24960" cy="6529.53" r="255.315" /> 
<polyline style="fill-rule:evenodd;"
points="24704,23284
24704,22774
25215,22774
25215,23284
24704,23284
" /> 
<circle cx="25960" cy="23029.5" r="255.315" /> 
<circle cx="26960" cy="23029.5" r="255.315" /> 
<circle cx="26960" cy="20029.5" r="255.315" /> 
<circle cx="25960" cy="20029.5" r="255.315" /> 
<circle cx="24960" cy="20029.5" r="255.315" /> 
<polyline style="fill-rule:evenodd;"
points="24704,18784
24704,18274
25215,18274
25215,18784
24704,18784
" /> 
<circle cx="25960" cy="18529.5" r="255.315" /> 
<circle cx="26960" cy="18529.5" r="255.315" /> 
<circle cx="26960" cy="15529.5" r="255.315" /> 
<circle cx="25960" cy="15529.5" r="255.315" /> 
<circle cx="24960" cy="15529.5" r="255.315" /> 
<polyline style="fill-rule:evenodd;"
points="8715,27784
8204,27784
8204,27274
8715,27274
8715,27784
" /> 
<circle cx="8460" cy="30529.5" r="255.315" /> 
<polyline style="fill-rule:evenodd;"
points="8715,23284
8204,23284
8204,22774
8715,22774
8715,23284
" /> 
<circle cx="8460" cy="26029.5" r="255.315" /> 
<polyline style="fill-rule:evenodd;"
points="8715,5284
8204,5284
8204,4774
8715,4774
8715,5284
" /> 
<circle cx="8460" cy="8029.53" r="255.315" /> 
<polyline style="fill-rule:evenodd;"
points="8715,36784
8204,36784
8204,36274
8715,36274
8715,36784
" /> 
<circle cx="8460" cy="39529.5" r="255.315" /> 
<polyline style="fill-rule:evenodd;"
points="8715,18784
8204,18784
8204,18274
8715,18274
8715,18784
" /> 
<circle cx="8460" cy="21529.5" r="255.315" /> 
<polyline style="fill-rule:evenodd;"
points="8715,14284
8204,14284
8204,13774
8715,13774
8715,14284
" /> 
<circle cx="8460" cy="17029.5" r="255.315" /> 
<polyline style="fill-rule:evenodd;"
points="8715,32284
8204,32284
8204,31774
8715,31774
8715,32284
" /> 
<circle cx="8460" cy="35029.5" r="255.315" /> 
<polyline style="fill-rule:evenodd;"
points="8715,9784
8204,9784
8204,9274
8715,9274
8715,9784
" /> 
<circle cx="8460" cy="12529.5" r="255.315" /> 
<polyline style="fill-rule:evenodd;"
points="10679,23309
10679,22749
11240,22749
11240,23309
10679,23309
" /> 
<circle cx="11960" cy="23029.5" r="280.315" /> 
<circle cx="12960" cy="23029.5" r="280.315" /> 
<polyline style="fill-rule:evenodd;"
points="10679,27809
10679,27249
11240,27249
11240,27809
10679,27809
" /> 
<circle cx="11960" cy="27529.5" r="280.315" /> 
<circle cx="12960" cy="27529.5" r="280.315" /> 
<polyline style="fill-rule:evenodd;"
points="10679,32309
10679,31749
11240,31749
11240,32309
10679,32309
" /> 
<circle cx="11960" cy="32029.5" r="280.315" /> 
<circle cx="12960" cy="32029.5" r="280.315" /> 
<polyline style="fill-rule:evenodd;"
points="10679,36809
10679,36249
11240,36249
11240,36809
10679,36809
" /> 
<circle cx="11960" cy="36529.5" r="280.315" /> 
<circle cx="12960" cy="36529.5" r="280.315" /> 
<polyline style="fill-rule:evenodd;"
points="7215,40274
7215,40784
6704,40784
6704,40274
7215,40274
" /> 
<circle cx="9960" cy="40529.5" r="255.315" /> 
<polyline style="fill-rule:evenodd;"
points="1979,31549
2940,31549
2940,32509
1979,32509
1979,31549
" /> 
<circle cx="2460" cy="34029.5" r="480.315" /> 
<circle cx="2460" cy="36029.5" r="480.315" /> 
<polyline style="fill-rule:evenodd;"
points="1979,18049
2940,18049
2940,19009
1979,19009
1979,18049
" /> 
<circle cx="2460" cy="20529.5" r="480.315" /> 
<circle cx="2460" cy="22529.5" r="480.315" /> 
<polyline style="fill-rule:evenodd;"
points="1979,4549
2940,4549
2940,5509
1979,5509
1979,4549
" /> 
<circle cx="2460" cy="7029.53" r="480.315" /> 
<circle cx="2460" cy="9029.53" r="480.315" /> 
<polyline style="fill-rule:evenodd;"
points="1979,40049
2940,40049
2940,41009
1979,41009
1979,40049
" /> 
<circle cx="2460" cy="42529.5" r="480.315" /> 
<polyline style="fill-rule:evenodd;"
points="10679,9809
10679,9249
11240,9249
11240,9809
10679,9809
" /> 
<circle cx="11960" cy="9529.53" r="280.315" /> 
<circle cx="12960" cy="9529.53" r="280.315" /> 
<polyline style="fill-rule:evenodd;"
points="10679,14309
10679,13749
11240,13749
11240,14309
10679,14309
" /> 
<circle cx="11960" cy="14029.5" r="280.315" /> 
<circle cx="12960" cy="14029.5" r="280.315" /> 
<polyline style="fill-rule:evenodd;"
points="10679,18809
10679,18249
11240,18249
11240,18809
10679,18809
" /> 
<circle cx="11960" cy="18529.5" r="280.315" /> 
<circle cx="12960" cy="18529.5" r="280.315" /> 
<circle cx="11960" cy="7529.53" r="255.315" /> 
<circle cx="14960" cy="7529.53" r="255.315" /> 
<circle cx="11960" cy="6529.53" r="255.315" /> 
<circle cx="14960" cy="6529.53" r="255.315" /> 
<circle cx="11960" cy="12029.5" r="255.315" /> 
<circle cx="14960" cy="12029.5" r="255.315" /> 
<circle cx="11960" cy="11029.5" r="255.315" /> 
<circle cx="14960" cy="11029.5" r="255.315" /> 
<circle cx="11960" cy="16529.5" r="255.315" /> 
<circle cx="14960" cy="16529.5" r="255.315" /> 
<circle cx="11960" cy="15529.5" r="255.315" /> 
<circle cx="14960" cy="15529.5" r="255.315" /> 
<circle cx="11960" cy="21029.5" r="255.315" /> 
<circle cx="14960" cy="21029.5" r="255.315" /> 
<circle cx="11960" cy="20029.5" r="255.315" /> 
<circle cx="14960" cy="20029.5" r="255.315" /> 
<circle cx="11960" cy="25529.5" r="255.315" /> 
<circle cx="14960" cy="25529.5" r="255.315" /> 
<circle cx="11960" cy="24529.5" r="255.315" /> 
<circle cx="14960" cy="24529.5" r="255.315" /> 
<circle cx="11960" cy="30029.5" r="255.315" /> 
<circle cx="14960" cy="30029.5" r="255.315" /> 
<circle cx="11960" cy="29029.5" r="255.315" /> 
<circle cx="14960" cy="29029.5" r="255.315" /> 
<circle cx="11960" cy="39029.5" r="255.315" /> 
<circle cx="14960" cy="39029.5" r="255.315" /> 
<circle cx="11960" cy="38029.5" r="255.315" /> 
<circle cx="14960" cy="38029.5" r="255.315" /> 
<circle cx="11960" cy="34529.5" r="255.315" /> 
<circle cx="14960" cy="34529.5" r="255.315" /> 
<circle cx="11960" cy="33529.5" r="255.315" /> 
<circle cx="14960" cy="33529.5" r="255.315" /> 
<polyline style="fill-rule:evenodd;"
points="28179,38499
28740,38499
28740,39059
28179,39059
28179,38499
" /> 
<circle cx="28460" cy="39779.5" r="280.315" /> 
<circle cx="31460" cy="1279.53" r="155.315" /> 
<circle cx="28960" cy="1279.53" r="155.315" /> 
<circle cx="31210" cy="19279.5" r="155.315" /> 
<circle cx="28460" cy="19279.5" r="155.315" /> 
<circle cx="30960" cy="14779.5" r="155.315" /> 
<circle cx="28460" cy="14779.5" r="155.315" /> 
<circle cx="25960" cy="15529.5" r="155.315" /> 
<circle cx="30960" cy="10279.5" r="155.315" /> 
<circle cx="28460" cy="10279.5" r="155.315" /> 
<circle cx="31210" cy="5779.53" r="155.315" /> 
<circle cx="28460" cy="5779.53" r="155.315" /> 
<circle cx="32210" cy="32779.5" r="155.315" /> 
<circle cx="28460" cy="32779.5" r="155.315" /> 
<circle cx="31710" cy="23779.5" r="155.315" /> 
<circle cx="28460" cy="23779.5" r="155.315" /> 
<circle cx="30460" cy="37779.5" r="155.315" /> 
<circle cx="26960" cy="37779.5" r="155.315" /> 
<circle cx="32210" cy="28279.5" r="155.315" /> 
<circle cx="28460" cy="28279.5" r="155.315" /> 
</g>
<g style="fill:#000000; fill-opacity:1.0; 
stroke:#000000; stroke-width:393.701; stroke-opacity:1; 
stroke-linecap:round; stroke-linejoin:round;">
<path d="M1460 8029
L960 7529
" />
<path d="M960 7529
L960 7779
" />
<path d="M1460 17029
L960 16529
" />
<path d="M960 16529
L960 16779
" />
<path d="M1460 8029
L960 8029
" />
<path d="M1460 17029
L960 17029
" />
<path d="M1460 19529
L960 19529
" />
<path d="M960 21529
L1460 21529
" />
<path d="M1460 33029
L960 33529
" />
<path d="M1460 33029
L960 32529
" />
<path d="M960 32529
L960 32779
" />
<path d="M1460 30529
L960 31029
" />
<path d="M960 31029
L960 30779
" />
<path d="M1460 30529
L960 30029
" />
<path d="M960 30029
L960 30279
" />
<path d="M26460 37279
L25960 36779
" />
<path d="M25960 36779
L25960 37029
" />
<path d="M25960 37779
L25960 37529
" />
<path d="M26460 37279
L25960 37779
" />
<path d="M25960 37529
L25960 37279
" />
<path d="M26460 37279
L25960 37279
" />
<path d="M28460 38779
L28460 37779
" />
<path d="M27960 37279
L26460 37279
" />
<path d="M28460 37779
L27960 37279
" />
<path d="M25960 9529
L25960 8779
" />
<path d="M25960 5529
L25960 5029
" />
<path d="M25710 5779
L25960 5529
" />
<path d="M23210 5779
L25710 5779
" />
<path d="M22710 6279
L23210 5779
" />
<path d="M22710 8029
L22710 6279
" />
<path d="M23210 8529
L22710 8029
" />
<path d="M25710 8529
L23210 8529
" />
<path d="M25960 8779
L25710 8529
" />
<path d="M25960 14029
L25960 13279
" />
<path d="M25960 10029
L25960 9529
" />
<path d="M25710 10279
L25960 10029
" />
<path d="M23210 10279
L25710 10279
" />
<path d="M22710 10779
L23210 10279
" />
<path d="M22710 12529
L22710 10779
" />
<path d="M23210 13029
L22710 12529
" />
<path d="M25710 13029
L23210 13029
" />
<path d="M25960 13279
L25710 13029
" />
<path d="M25960 18529
L25960 17779
" />
<path d="M25960 14529
L25960 14029
" />
<path d="M25710 14779
L25960 14529
" />
<path d="M23210 14779
L25710 14779
" />
<path d="M22710 15279
L23210 14779
" />
<path d="M22710 17029
L22710 15279
" />
<path d="M23210 17529
L22710 17029
" />
<path d="M25710 17529
L23210 17529
" />
<path d="M25960 17779
L25710 17529
" />
<path d="M25960 23029
L25960 22279
" />
<path d="M25960 19029
L25960 18529
" />
<path d="M25710 19279
L25960 19029
" />
<path d="M23460 19279
L25710 19279
" />
<path d="M22960 19779
L23460 19279
" />
<path d="M22960 21529
L22960 19779
" />
<path d="M23460 22029
L22960 21529
" />
<path d="M25710 22029
L23460 22029
" />
<path d="M25960 22279
L25710 22029
" />
<path d="M25960 27529
L25960 27029
" />
<path d="M25960 23529
L25960 23029
" />
<path d="M25710 23779
L25960 23529
" />
<path d="M23710 23779
L25710 23779
" />
<path d="M23210 24279
L23710 23779
" />
<path d="M23210 24529
L23210 24279
" />
<path d="M23210 26029
L23210 24529
" />
<path d="M23710 26529
L23210 26029
" />
<path d="M25460 26529
L23710 26529
" />
<path d="M25960 27029
L25460 26529
" />
<path d="M25960 32029
L25960 31529
" />
<path d="M25960 28029
L25960 27529
" />
<path d="M25710 28279
L25960 28029
" />
<path d="M23710 28279
L25710 28279
" />
<path d="M23210 28779
L23710 28279
" />
<path d="M23210 30779
L23210 28779
" />
<path d="M23710 31279
L23210 30779
" />
<path d="M25710 31279
L23710 31279
" />
<path d="M25960 31529
L25710 31279
" />
<path d="M25960 36529
L25960 35779
" />
<path d="M25960 32529
L25960 32029
" />
<path d="M25710 32779
L25960 32529
" />
<path d="M24210 32779
L25710 32779
" />
<path d="M23460 33529
L24210 32779
" />
<path d="M23460 35029
L23460 33529
" />
<path d="M23960 35529
L23460 35029
" />
<path d="M25710 35529
L23960 35529
" />
<path d="M25960 35779
L25710 35529
" />
<path d="M8460 39529
L10460 39529
" />
<path d="M10460 39529
L10960 40029
" />
<path d="M10960 40029
L24460 40029
" />
<path d="M24460 40029
L25960 38529
" />
<path d="M25960 38529
L25960 37529
" />
<path d="M25960 37279
L25960 37029
" />
<path d="M25960 37029
L25960 36529
" />
<path d="M960 35529
L960 33529
" />
<path d="M960 33529
L960 32779
" />
<path d="M960 32779
L960 30779
" />
<path d="M960 30779
L960 30279
" />
<path d="M960 30279
L960 21529
" />
<path d="M960 21529
L960 19529
" />
<path d="M960 19529
L960 17029
" />
<path d="M960 17029
L960 16779
" />
<path d="M960 16779
L960 8029
" />
<path d="M960 8029
L960 7779
" />
<path d="M960 7779
L960 6529
" />
<path d="M4460 8029
L8460 12029
" />
<path d="M960 8529
L1460 8029
" />
<path d="M1460 8029
L4460 8029
" />
<path d="M960 9029
L960 8529
" />
<path d="M8460 12029
L8460 12529
" />
<path d="M4460 6029
L5460 6029
" />
<path d="M5460 6029
L7460 8029
" />
<path d="M7460 8029
L8460 8029
" />
<path d="M4460 6029
L1460 6029
" />
<path d="M960 6529
L1460 6029
" />
<path d="M960 17529
L960 9029
" />
<path d="M960 9029
L960 6529
" />
<path d="M960 20029
L960 17529
" />
<path d="M1460 17029
L8460 17029
" />
<path d="M960 17529
L1460 17029
" />
<path d="M960 22029
L960 20029
" />
<path d="M6460 21529
L8460 21529
" />
<path d="M4460 19529
L6460 21529
" />
<path d="M1460 19529
L4460 19529
" />
<path d="M960 20029
L1460 19529
" />
<path d="M960 30529
L960 22029
" />
<path d="M8460 25529
L8460 26029
" />
<path d="M1460 21529
L4460 21529
" />
<path d="M4460 21529
L8460 25529
" />
<path d="M960 22029
L1460 21529
" />
<path d="M960 33029
L960 30529
" />
<path d="M960 30529
L1460 30529
" />
<path d="M1460 30529
L8460 30529
" />
<path d="M4460 33029
L4960 33029
" />
<path d="M2460 36029
L1460 36029
" />
<path d="M960 35529
L960 33029
" />
<path d="M1460 36029
L960 35529
" />
<path d="M4460 33029
L1460 33029
" />
<path d="M1460 33029
L960 33029
" />
<path d="M6960 35029
L8460 35029
" />
<path d="M4960 33029
L6960 35029
" />
<path d="M2460 36029
L4460 36029
" />
<path d="M7460 39529
L8460 39529
" />
<path d="M6960 39029
L7460 39529
" />
<path d="M6960 38529
L6960 39029
" />
<path d="M4460 36029
L6960 38529
" />
<path d="M28835 6654
L29460 6654
" />
<path d="M29460 6654
L29460 6779
" />
<path d="M28710 6529
L28835 6654
" />
<path d="M28835 6654
L29460 7279
" />
<path d="M29210 6529
L28710 6529
" />
<path d="M28960 24529
L29460 24529
" />
<path d="M28960 20029
L29210 20279
" />
<path d="M29210 20279
L29210 20529
" />
<path d="M28960 15529
L29210 15529
" />
<path d="M29210 15529
L29460 15779
" />
<path d="M28960 11029
L29460 11029
" />
<path d="M28460 15529
L28960 15529
" />
<path d="M28960 15529
L29460 15529
" />
<path d="M28710 20029
L28960 20029
" />
<path d="M28960 20029
L29460 20029
" />
<path d="M28960 29029
L29460 29029
" />
<path d="M29460 33779
L28960 33779
" />
<path d="M29210 33779
L29210 34029
" />
<path d="M28960 33779
L29210 33779
" />
<path d="M28710 33529
L29460 33529
" />
<path d="M29960 41279
L29460 40779
" />
<path d="M29460 40779
L28960 41279
" />
<path d="M28960 39779
L29460 40279
" />
<path d="M29460 40279
L29460 40029
" />
<path d="M28960 39779
L29460 39279
" />
<path d="M28460 39779
L28960 39779
" />
<path d="M28960 39779
L29460 39779
" />
<path d="M26960 33529
L28710 33529
" />
<path d="M28710 33529
L29210 34029
" />
<path d="M29210 34029
L29460 34279
" />
<path d="M26960 29029
L28960 29029
" />
<path d="M28960 29029
L29460 29529
" />
<path d="M26960 24529
L28960 24529
" />
<path d="M28960 24529
L29460 25029
" />
<path d="M26960 20029
L28710 20029
" />
<path d="M28710 20029
L29210 20529
" />
<path d="M29210 20529
L29460 20779
" />
<path d="M26960 15529
L28460 15529
" />
<path d="M28460 15529
L28710 15529
" />
<path d="M28710 15529
L29210 16029
" />
<path d="M29210 16029
L29335 16154
" />
<path d="M29335 16154
L29460 16279
" />
<path d="M26960 11029
L28960 11029
" />
<path d="M28960 11029
L29460 11529
" />
<path d="M26960 6529
L28710 6529
" />
<path d="M29460 41279
L29460 40779
" />
<path d="M29460 40779
L29460 40029
" />
<path d="M29460 40029
L29460 39779
" />
<path d="M29460 39779
L29460 39279
" />
<path d="M29460 39279
L29460 34279
" />
<path d="M29460 34279
L29460 33779
" />
<path d="M29460 33779
L29460 33529
" />
<path d="M29460 33529
L29460 29529
" />
<path d="M29460 29529
L29460 29029
" />
<path d="M29460 29029
L29460 25029
" />
<path d="M29460 25029
L29460 24529
" />
<path d="M29460 24529
L29460 20779
" />
<path d="M29460 20779
L29460 20029
" />
<path d="M29460 20029
L29460 16279
" />
<path d="M29460 16279
L29460 15779
" />
<path d="M29460 15779
L29460 15529
" />
<path d="M29460 15529
L29460 11529
" />
<path d="M29460 11529
L29460 11029
" />
<path d="M29460 11029
L29460 7279
" />
<path d="M29460 7279
L29460 6779
" />
<path d="M29460 6779
L29460 2529
" />
<path d="M29460 2529
L28960 2029
" />
<path d="M28960 2029
L26960 2029
" />
<path d="M28210 41279
L28960 41279
" />
<path d="M26960 42529
L2460 42529
" />
<path d="M28210 41279
L26960 42529
" />
<path d="M28960 41279
L29460 41279
" />
<path d="M29460 41279
L29960 41279
" />
<path d="M29960 41279
L30210 41279
" />
<path d="M36960 11529
L37460 11529
" />
<path d="M35710 12779
L36960 11529
" />
<path d="M35710 40279
L35710 12779
" />
<path d="M34710 41279
L35710 40279
" />
<path d="M32710 41279
L34710 41279
" />
<path d="M30210 41279
L32710 41279
" />
<path d="M25960 2029
L25960 1779
" />
<path d="M32210 2029
L33460 2029
" />
<path d="M31460 1279
L32210 2029
" />
<path d="M26460 1279
L28960 1279
" />
<path d="M25960 1779
L26460 1279
" />
<path d="M37460 3529
L36210 3529
" />
<path d="M34710 2029
L33460 2029
" />
<path d="M36210 3529
L34710 2029
" />
<path d="M17960 14029
L19960 14029
" />
<path d="M25960 20029
L26710 19279
" />
<path d="M32960 8529
L33460 8029
" />
<path d="M32960 9081
L32960 8529
" />
<path d="M32210 9831
L32960 9081
" />
<path d="M32210 10535
L32210 9831
" />
<path d="M31710 11035
L32210 10535
" />
<path d="M31710 15279
L31710 11035
" />
<path d="M31210 15779
L31710 15279
" />
<path d="M31210 19279
L31210 15779
" />
<path d="M26710 19279
L28460 19279
" />
<path d="M37460 7529
L35710 7529
" />
<path d="M35210 8029
L33460 8029
" />
<path d="M35710 7529
L35210 8029
" />
<path d="M17960 18529
L19960 18529
" />
<path d="M24960 18529
L22960 18529
" />
<path d="M25960 15529
L26710 14779
" />
<path d="M32460 7529
L33460 6529
" />
<path d="M32460 8779
L32460 7529
" />
<path d="M31710 9529
L32460 8779
" />
<path d="M31710 9785
L31710 9529
" />
<path d="M31710 10285
L31710 9785
" />
<path d="M31216 10779
L31710 10285
" />
<path d="M31216 14523
L31216 10779
" />
<path d="M30960 14779
L31216 14523
" />
<path d="M26710 14779
L28460 14779
" />
<path d="M37460 6529
L33460 6529
" />
<path d="M22960 14029
L24960 14029
" />
<path d="M25960 11029
L26710 10279
" />
<path d="M31960 6529
L33460 5029
" />
<path d="M31960 8529
L31960 6529
" />
<path d="M31210 9279
L31960 8529
" />
<path d="M31210 10029
L31210 9279
" />
<path d="M30960 10279
L31210 10029
" />
<path d="M26710 10279
L28460 10279
" />
<path d="M37460 5529
L35710 5529
" />
<path d="M35210 5029
L33460 5029
" />
<path d="M35710 5529
L35210 5029
" />
<path d="M17960 9529
L19960 9529
" />
<path d="M24960 9529
L22960 9529
" />
<path d="M25960 6529
L26710 5779
" />
<path d="M31210 5779
L33460 3529
" />
<path d="M26710 5779
L28460 5779
" />
<path d="M37460 4529
L35960 4529
" />
<path d="M34960 3529
L33460 3529
" />
<path d="M35960 4529
L34960 3529
" />
<path d="M17460 32029
L19460 32029
" />
<path d="M19960 36529
L17460 36529
" />
<path d="M22960 36529
L24960 36529
" />
<path d="M33460 13029
L33960 12529
" />
<path d="M25960 33529
L26710 32779
" />
<path d="M26710 32779
L28460 32779
" />
<path d="M32210 32779
L32960 32779
" />
<path d="M33210 32529
L32960 32779
" />
<path d="M33460 32279
L33210 32529
" />
<path d="M33460 12529
L33460 13029
" />
<path d="M33460 13029
L33460 32279
" />
<path d="M32960 32779
L32210 32779
" />
<path d="M37460 10529
L36710 10529
" />
<path d="M34710 12529
L33960 12529
" />
<path d="M36710 10529
L34710 12529
" />
<path d="M33960 12529
L33460 12529
" />
<path d="M14960 20029
L14960 21029
" />
<path d="M17460 27529
L19960 27529
" />
<path d="M22960 27529
L24960 27529
" />
<path d="M25960 24529
L26710 23779
" />
<path d="M26710 23779
L28460 23779
" />
<path d="M31710 23779
L31710 23279
" />
<path d="M33460 9529
L33210 9529
" />
<path d="M31710 16029
L31710 23279
" />
<path d="M31710 23279
L31710 23779
" />
<path d="M32203 15535
L31710 16029
" />
<path d="M32203 11285
L32203 15535
" />
<path d="M32710 10779
L32203 11285
" />
<path d="M32710 10029
L32710 10779
" />
<path d="M33210 9529
L32710 10029
" />
<path d="M37460 8529
L36210 8529
" />
<path d="M35210 9529
L33460 9529
" />
<path d="M36210 8529
L35210 9529
" />
<path d="M17960 23029
L19960 23029
" />
<path d="M22960 23029
L24960 23029
" />
<path d="M11960 9529
L16960 9529
" />
<path d="M11960 9529
L11960 11029
" />
<path d="M10960 23529
L10460 23029
" />
<path d="M4460 20529
L6960 23029
" />
<path d="M2460 20529
L4460 20529
" />
<path d="M6960 23029
L8460 23029
" />
<path d="M8460 23029
L10460 23029
" />
<path d="M10460 23029
L10960 23029
" />
<path d="M10960 23029
L10960 23529
" />
<path d="M10960 23529
L10960 25029
" />
<path d="M10960 25029
L11460 25529
" />
<path d="M11460 25529
L11960 25529
" />
<path d="M11960 5529
L12460 5029
" />
<path d="M11960 5029
L12460 5029
" />
<path d="M12460 5029
L16960 5029
" />
<path d="M11960 5029
L11960 5529
" />
<path d="M11960 5529
L11960 6529
" />
<path d="M10960 37029
L10460 36529
" />
<path d="M2460 34029
L4460 34029
" />
<path d="M6960 36529
L8460 36529
" />
<path d="M4460 34029
L6960 36529
" />
<path d="M10960 36529
L10960 37029
" />
<path d="M10960 37029
L10960 38529
" />
<path d="M11460 39029
L11960 39029
" />
<path d="M10960 38529
L11460 39029
" />
<path d="M8460 36529
L10460 36529
" />
<path d="M10460 36529
L10960 36529
" />
<path d="M11960 14529
L12460 14029
" />
<path d="M11960 14029
L12460 14029
" />
<path d="M12460 14029
L13460 14029
" />
<path d="M13460 14029
L12960 14029
" />
<path d="M12960 14029
L16960 14029
" />
<path d="M11960 14029
L11960 14529
" />
<path d="M11960 14529
L11960 15529
" />
<path d="M11960 28029
L12460 27529
" />
<path d="M11960 27529
L12460 27529
" />
<path d="M12460 27529
L12960 27529
" />
<path d="M12960 27529
L16460 27529
" />
<path d="M11960 27529
L11960 28029
" />
<path d="M11960 28029
L11960 29029
" />
<path d="M11960 37029
L12460 36529
" />
<path d="M11960 36529
L12460 36529
" />
<path d="M12460 36529
L12960 36529
" />
<path d="M16460 36529
L12960 36529
" />
<path d="M11960 36529
L11960 37029
" />
<path d="M11960 37029
L11960 38029
" />
<path d="M11960 32029
L12960 32029
" />
<path d="M12960 32029
L16460 32029
" />
<path d="M11960 32029
L11960 33529
" />
<path d="M11960 32029
L11960 33029
" />
<path d="M11960 23529
L12460 23029
" />
<path d="M11960 23029
L12460 23029
" />
<path d="M12460 23029
L16960 23029
" />
<path d="M11960 23029
L11960 23529
" />
<path d="M11960 23529
L11960 24529
" />
<path d="M11960 19029
L12460 18529
" />
<path d="M16960 18529
L12460 18529
" />
<path d="M12460 18529
L11960 18529
" />
<path d="M11960 18529
L11960 19029
" />
<path d="M11960 19029
L11960 20029
" />
<path d="M10460 18529
L10960 19029
" />
<path d="M2460 18529
L8460 18529
" />
<path d="M8460 18529
L10460 18529
" />
<path d="M10460 18529
L10960 18529
" />
<path d="M10960 18529
L10960 19029
" />
<path d="M10960 19029
L10960 20529
" />
<path d="M10960 20529
L11460 21029
" />
<path d="M11460 21029
L11960 21029
" />
<path d="M10460 14029
L10960 14529
" />
<path d="M10960 14529
L10960 14779
" />
<path d="M2460 9029
L4460 9029
" />
<path d="M7460 14029
L8460 14029
" />
<path d="M6960 13529
L7460 14029
" />
<path d="M6960 11529
L6960 13529
" />
<path d="M4460 9029
L6960 11529
" />
<path d="M8460 14029
L10460 14029
" />
<path d="M10460 14029
L10960 14029
" />
<path d="M10960 14029
L10960 14779
" />
<path d="M10960 14779
L10960 16029
" />
<path d="M11460 16529
L11960 16529
" />
<path d="M10960 16029
L11460 16529
" />
<path d="M14960 24529
L14960 25529
" />
<path d="M2460 7029
L4460 7029
" />
<path d="M6960 9529
L8460 9529
" />
<path d="M4460 7029
L6960 9529
" />
<path d="M8460 9529
L10960 9529
" />
<path d="M10960 9529
L10960 11529
" />
<path d="M10960 11529
L11460 12029
" />
<path d="M11460 12029
L11960 12029
" />
<path d="M14960 38029
L14960 39029
" />
<path d="M14960 33529
L14960 34529
" />
<path d="M14960 6529
L14960 7529
" />
<path d="M14960 11029
L14960 12029
" />
<path d="M14960 15529
L14960 16529
" />
<path d="M6960 40529
L4960 40529
" />
<path d="M4960 40529
L2460 40529
" />
<path d="M14960 29029
L14960 30029
" />
<path d="M10460 5029
L10960 5529
" />
<path d="M2460 5029
L8460 5029
" />
<path d="M8460 5029
L10460 5029
" />
<path d="M10460 5029
L10960 5029
" />
<path d="M10960 5029
L10960 5529
" />
<path d="M10960 5529
L10960 7029
" />
<path d="M11460 7529
L11960 7529
" />
<path d="M10960 7029
L11460 7529
" />
<path d="M9960 40529
L10460 40529
" />
<path d="M30460 37779
L30460 12529
" />
<path d="M26960 39779
L26960 37779
" />
<path d="M25460 41279
L26960 39779
" />
<path d="M11210 41279
L25460 41279
" />
<path d="M10460 40529
L11210 41279
" />
<path d="M30460 2029
L30460 12529
" />
<path d="M37460 2529
L36460 2529
" />
<path d="M30460 1279
L30460 2029
" />
<path d="M30960 779
L30460 1279
" />
<path d="M34710 779
L30960 779
" />
<path d="M36460 2529
L34710 779
" />
<path d="M22960 5029
L24960 5029
" />
<path d="M17960 5029
L19960 5029
" />
<path d="M24960 32029
L22960 32029
" />
<path d="M22960 32029
L22460 32029
" />
<path d="M10960 28029
L10460 27529
" />
<path d="M4460 22529
L6960 25029
" />
<path d="M2460 22529
L4460 22529
" />
<path d="M7460 27529
L8460 27529
" />
<path d="M6960 27029
L7460 27529
" />
<path d="M6960 25029
L6960 27029
" />
<path d="M8460 27529
L10460 27529
" />
<path d="M10460 27529
L10960 27529
" />
<path d="M10960 27529
L10960 28029
" />
<path d="M10960 28029
L10960 29529
" />
<path d="M10960 29529
L11460 30029
" />
<path d="M11460 30029
L11960 30029
" />
<path d="M2460 32029
L8460 32029
" />
<path d="M8460 32029
L10960 32029
" />
<path d="M10960 32029
L10960 34029
" />
<path d="M10960 34029
L11460 34529
" />
<path d="M11460 34529
L11960 34529
" />
<path d="M25960 29029
L26710 28279
" />
<path d="M26710 28279
L28460 28279
" />
<path d="M32210 28279
L32210 27529
" />
<path d="M33460 11029
L33447 11029
" />
<path d="M32210 16279
L32210 27529
" />
<path d="M32210 27529
L32210 28279
" />
<path d="M32710 15779
L32210 16279
" />
<path d="M32710 11766
L32710 15779
" />
<path d="M33447 11029
L32710 11766
" />
<path d="M37460 9529
L36710 9529
" />
<path d="M35210 11029
L33460 11029
" />
<path d="M36710 9529
L35210 11029
" />
</g>
<g style="fill:#FFFFFF; fill-opacity:1.0; 
stroke:#FFFFFF; stroke-width:39.3701; stroke-opacity:1; 
stroke-linecap:round; stroke-linejoin:round;">
<circle cx="31460" cy="1279.53" r="105.315" /> 
<circle cx="28960" cy="1279.53" r="105.315" /> 
<circle cx="31210" cy="19279.5" r="105.315" /> 
<circle cx="28460" cy="19279.5" r="105.315" /> 
<circle cx="30960" cy="14779.5" r="105.315" /> 
<circle cx="28460" cy="14779.5" r="105.315" /> 
<circle cx="25960" cy="15529.5" r="105.315" /> 
<circle cx="30960" cy="10279.5" r="105.315" /> 
<circle cx="28460" cy="10279.5" r="105.315" /> 
<circle cx="31210" cy="5779.53" r="105.315" /> 
<circle cx="28460" cy="5779.53" r="105.315" /> 
<circle cx="32210" cy="32779.5" r="105.315" /> 
<circle cx="28460" cy="32779.5" r="105.315" /> 
<circle cx="31710" cy="23779.5" r="105.315" /> 
<circle cx="28460" cy="23779.5" r="105.315" /> 
<circle cx="30460" cy="37779.5" r="105.315" /> 
<circle cx="26960" cy="37779.5" r="105.315" /> 
<circle cx="32210" cy="28279.5" r="105.315" /> 
<circle cx="28460" cy="28279.5" r="105.315" /> 
<circle cx="33460" cy="2029.53" r="140.315" /> 
<circle cx="30460" cy="2029.53" r="140.315" /> 
<circle cx="37460" cy="2529.53" r="140.315" /> 
<circle cx="37460" cy="3529.53" r="140.315" /> 
<circle cx="37460" cy="4529.53" r="140.315" /> 
<circle cx="37460" cy="5529.53" r="140.315" /> 
<circle cx="37460" cy="6529.53" r="140.315" /> 
<circle cx="37460" cy="7529.53" r="140.315" /> 
<circle cx="37460" cy="8529.53" r="140.315" /> 
<circle cx="37460" cy="9529.53" r="140.315" /> 
<circle cx="37460" cy="10529.5" r="140.315" /> 
<circle cx="37460" cy="11529.5" r="140.315" /> 
<circle cx="19960" cy="5029.53" r="140.315" /> 
<circle cx="22960" cy="5029.53" r="140.315" /> 
<circle cx="33460" cy="11029.5" r="140.315" /> 
<circle cx="30460" cy="11029.5" r="140.315" /> 
<circle cx="19460" cy="32029.5" r="140.315" /> 
<circle cx="22460" cy="32029.5" r="140.315" /> 
<circle cx="33460" cy="12529.5" r="140.315" /> 
<circle cx="30460" cy="12529.5" r="140.315" /> 
<circle cx="19960" cy="36529.5" r="140.315" /> 
<circle cx="22960" cy="36529.5" r="140.315" /> 
<circle cx="33460" cy="9529.53" r="140.315" /> 
<circle cx="30460" cy="9529.53" r="140.315" /> 
<circle cx="19960" cy="27529.5" r="140.315" /> 
<circle cx="22960" cy="27529.5" r="140.315" /> 
<circle cx="33460" cy="8029.53" r="140.315" /> 
<circle cx="30460" cy="8029.53" r="140.315" /> 
<circle cx="19960" cy="23029.5" r="140.315" /> 
<circle cx="22960" cy="23029.5" r="140.315" /> 
<circle cx="33460" cy="6529.53" r="140.315" /> 
<circle cx="30460" cy="6529.53" r="140.315" /> 
<circle cx="19960" cy="18529.5" r="140.315" /> 
<circle cx="22960" cy="18529.5" r="140.315" /> 
<circle cx="33460" cy="5029.53" r="140.315" /> 
<circle cx="30460" cy="5029.53" r="140.315" /> 
<circle cx="19960" cy="14029.5" r="140.315" /> 
<circle cx="22960" cy="14029.5" r="140.315" /> 
<circle cx="33460" cy="3529.53" r="140.315" /> 
<circle cx="30460" cy="3529.53" r="140.315" /> 
<circle cx="19960" cy="9529.53" r="140.315" /> 
<circle cx="22960" cy="9529.53" r="140.315" /> 
<circle cx="10960" cy="5029.53" r="180.315" /> 
<circle cx="11960" cy="5029.53" r="180.315" /> 
<circle cx="12960" cy="5029.53" r="180.315" /> 
<circle cx="16460" cy="27529.5" r="140.315" /> 
<circle cx="17460" cy="27529.5" r="140.315" /> 
<circle cx="16960" cy="14029.5" r="140.315" /> 
<circle cx="17960" cy="14029.5" r="140.315" /> 
<circle cx="16460" cy="32029.5" r="140.315" /> 
<circle cx="17460" cy="32029.5" r="140.315" /> 
<circle cx="16960" cy="9529.53" r="140.315" /> 
<circle cx="17960" cy="9529.53" r="140.315" /> 
<circle cx="16960" cy="18529.5" r="140.315" /> 
<circle cx="17960" cy="18529.5" r="140.315" /> 
<circle cx="16960" cy="5029.53" r="140.315" /> 
<circle cx="17960" cy="5029.53" r="140.315" /> 
<circle cx="16460" cy="36529.5" r="140.315" /> 
<circle cx="17460" cy="36529.5" r="140.315" /> 
<circle cx="16960" cy="23029.5" r="140.315" /> 
<circle cx="17960" cy="23029.5" r="140.315" /> 
<circle cx="24960" cy="36529.5" r="140.315" /> 
<circle cx="25960" cy="36529.5" r="140.315" /> 
<circle cx="26960" cy="36529.5" r="140.315" /> 
<circle cx="26960" cy="33529.5" r="140.315" /> 
<circle cx="25960" cy="33529.5" r="140.315" /> 
<circle cx="24960" cy="33529.5" r="140.315" /> 
<circle cx="24960" cy="32029.5" r="140.315" /> 
<circle cx="25960" cy="32029.5" r="140.315" /> 
<circle cx="26960" cy="32029.5" r="140.315" /> 
<circle cx="26960" cy="29029.5" r="140.315" /> 
<circle cx="25960" cy="29029.5" r="140.315" /> 
<circle cx="24960" cy="29029.5" r="140.315" /> 
<circle cx="24960" cy="5029.53" r="140.315" /> 
<circle cx="25960" cy="5029.53" r="140.315" /> 
<circle cx="26960" cy="5029.53" r="140.315" /> 
<circle cx="26960" cy="2029.53" r="140.315" /> 
<circle cx="25960" cy="2029.53" r="140.315" /> 
<circle cx="24960" cy="2029.53" r="140.315" /> 
<circle cx="24960" cy="14029.5" r="140.315" /> 
<circle cx="25960" cy="14029.5" r="140.315" /> 
<circle cx="26960" cy="14029.5" r="140.315" /> 
<circle cx="26960" cy="11029.5" r="140.315" /> 
<circle cx="25960" cy="11029.5" r="140.315" /> 
<circle cx="24960" cy="11029.5" r="140.315" /> 
<circle cx="24960" cy="27529.5" r="140.315" /> 
<circle cx="25960" cy="27529.5" r="140.315" /> 
<circle cx="26960" cy="27529.5" r="140.315" /> 
<circle cx="26960" cy="24529.5" r="140.315" /> 
<circle cx="25960" cy="24529.5" r="140.315" /> 
<circle cx="24960" cy="24529.5" r="140.315" /> 
<circle cx="24960" cy="9529.53" r="140.315" /> 
<circle cx="25960" cy="9529.53" r="140.315" /> 
<circle cx="26960" cy="9529.53" r="140.315" /> 
<circle cx="26960" cy="6529.53" r="140.315" /> 
<circle cx="25960" cy="6529.53" r="140.315" /> 
<circle cx="24960" cy="6529.53" r="140.315" /> 
<circle cx="24960" cy="23029.5" r="140.315" /> 
<circle cx="25960" cy="23029.5" r="140.315" /> 
<circle cx="26960" cy="23029.5" r="140.315" /> 
<circle cx="26960" cy="20029.5" r="140.315" /> 
<circle cx="25960" cy="20029.5" r="140.315" /> 
<circle cx="24960" cy="20029.5" r="140.315" /> 
<circle cx="24960" cy="18529.5" r="140.315" /> 
<circle cx="25960" cy="18529.5" r="140.315" /> 
<circle cx="26960" cy="18529.5" r="140.315" /> 
<circle cx="26960" cy="15529.5" r="140.315" /> 
<circle cx="25960" cy="15529.5" r="140.315" /> 
<circle cx="24960" cy="15529.5" r="140.315" /> 
<circle cx="8460" cy="27529.5" r="140.315" /> 
<circle cx="8460" cy="30529.5" r="140.315" /> 
<circle cx="8460" cy="23029.5" r="140.315" /> 
<circle cx="8460" cy="26029.5" r="140.315" /> 
<circle cx="8460" cy="5029.53" r="140.315" /> 
<circle cx="8460" cy="8029.53" r="140.315" /> 
<circle cx="8460" cy="36529.5" r="140.315" /> 
<circle cx="8460" cy="39529.5" r="140.315" /> 
<circle cx="8460" cy="18529.5" r="140.315" /> 
<circle cx="8460" cy="21529.5" r="140.315" /> 
<circle cx="8460" cy="14029.5" r="140.315" /> 
<circle cx="8460" cy="17029.5" r="140.315" /> 
<circle cx="8460" cy="32029.5" r="140.315" /> 
<circle cx="8460" cy="35029.5" r="140.315" /> 
<circle cx="8460" cy="9529.53" r="140.315" /> 
<circle cx="8460" cy="12529.5" r="140.315" /> 
<circle cx="10960" cy="23029.5" r="180.315" /> 
<circle cx="11960" cy="23029.5" r="180.315" /> 
<circle cx="12960" cy="23029.5" r="180.315" /> 
<circle cx="10960" cy="27529.5" r="180.315" /> 
<circle cx="11960" cy="27529.5" r="180.315" /> 
<circle cx="12960" cy="27529.5" r="180.315" /> 
<circle cx="10960" cy="32029.5" r="180.315" /> 
<circle cx="11960" cy="32029.5" r="180.315" /> 
<circle cx="12960" cy="32029.5" r="180.315" /> 
<circle cx="10960" cy="36529.5" r="180.315" /> 
<circle cx="11960" cy="36529.5" r="180.315" /> 
<circle cx="12960" cy="36529.5" r="180.315" /> 
<circle cx="6960" cy="40529.5" r="140.315" /> 
<circle cx="9960" cy="40529.5" r="140.315" /> 
<circle cx="2460" cy="32029.5" r="280.315" /> 
<circle cx="2460" cy="34029.5" r="280.315" /> 
<circle cx="2460" cy="36029.5" r="280.315" /> 
<circle cx="2460" cy="18529.5" r="280.315" /> 
<circle cx="2460" cy="20529.5" r="280.315" /> 
<circle cx="2460" cy="22529.5" r="280.315" /> 
<circle cx="2460" cy="5029.53" r="280.315" /> 
<circle cx="2460" cy="7029.53" r="280.315" /> 
<circle cx="2460" cy="9029.53" r="280.315" /> 
<circle cx="2460" cy="40529.5" r="280.315" /> 
<circle cx="2460" cy="42529.5" r="280.315" /> 
<circle cx="10960" cy="9529.53" r="180.315" /> 
<circle cx="11960" cy="9529.53" r="180.315" /> 
<circle cx="12960" cy="9529.53" r="180.315" /> 
<circle cx="10960" cy="14029.5" r="180.315" /> 
<circle cx="11960" cy="14029.5" r="180.315" /> 
<circle cx="12960" cy="14029.5" r="180.315" /> 
<circle cx="10960" cy="18529.5" r="180.315" /> 
<circle cx="11960" cy="18529.5" r="180.315" /> 
<circle cx="12960" cy="18529.5" r="180.315" /> 
<circle cx="11960" cy="7529.53" r="140.315" /> 
<circle cx="14960" cy="7529.53" r="140.315" /> 
<circle cx="11960" cy="6529.53" r="140.315" /> 
<circle cx="14960" cy="6529.53" r="140.315" /> 
<circle cx="11960" cy="12029.5" r="140.315" /> 
<circle cx="14960" cy="12029.5" r="140.315" /> 
<circle cx="11960" cy="11029.5" r="140.315" /> 
<circle cx="14960" cy="11029.5" r="140.315" /> 
<circle cx="11960" cy="16529.5" r="140.315" /> 
<circle cx="14960" cy="16529.5" r="140.315" /> 
<circle cx="11960" cy="15529.5" r="140.315" /> 
<circle cx="14960" cy="15529.5" r="140.315" /> 
<circle cx="11960" cy="21029.5" r="140.315" /> 
<circle cx="14960" cy="21029.5" r="140.315" /> 
<circle cx="11960" cy="20029.5" r="140.315" /> 
<circle cx="14960" cy="20029.5" r="140.315" /> 
<circle cx="11960" cy="25529.5" r="140.315" /> 
<circle cx="14960" cy="25529.5" r="140.315" /> 
<circle cx="11960" cy="24529.5" r="140.315" /> 
<circle cx="14960" cy="24529.5" r="140.315" /> 
<circle cx="11960" cy="30029.5" r="140.315" /> 
<circle cx="14960" cy="30029.5" r="140.315" /> 
<circle cx="11960" cy="29029.5" r="140.315" /> 
<circle cx="14960" cy="29029.5" r="140.315" /> 
<circle cx="11960" cy="39029.5" r="140.315" /> 
<circle cx="14960" cy="39029.5" r="140.315" /> 
<circle cx="11960" cy="38029.5" r="140.315" /> 
<circle cx="14960" cy="38029.5" r="140.315" /> 
<circle cx="11960" cy="34529.5" r="140.315" /> 
<circle cx="14960" cy="34529.5" r="140.315" /> 
<circle cx="11960" cy="33529.5" r="140.315" /> 
<circle cx="14960" cy="33529.5" r="140.315" /> 
<circle cx="28460" cy="38779.5" r="180.315" /> 
<circle cx="28460" cy="39779.5" r="180.315" /> 
</g> 
</svg>
